<svg xmlns="http://www.w3.org/2000/svg" xmlns:xlink="http://www.w3.org/1999/xlink" width="450" zoomAndPan="magnify" viewBox="0 0 337.5 337.500003" height="450" preserveAspectRatio="xMidYMid meet" version="1.0"><defs><clipPath id="985cf54780"><path d="M 20.164062 17.199219 L 225.847656 17.199219 L 225.847656 203.257812 L 20.164062 203.257812 Z M 20.164062 17.199219 " clip-rule="nonzero"/></clipPath><clipPath id="5e89baed47"><path d="M 122.992188 17.199219 L 225.824219 203.257812 L 20.164062 203.257812 Z M 122.992188 17.199219 " clip-rule="nonzero"/></clipPath><clipPath id="999c875a15"><path d="M 96.648438 110.226562 L 249.472656 110.226562 L 249.472656 264.050781 L 96.648438 264.050781 Z M 96.648438 110.226562 " clip-rule="nonzero"/></clipPath><clipPath id="fd8906634d"><path d="M 135.46875 154.664062 L 304.742188 154.664062 L 304.742188 323.9375 L 135.46875 323.9375 Z M 135.46875 154.664062 " clip-rule="nonzero"/></clipPath><clipPath id="7edf360b66"><path d="M 220.105469 154.664062 C 173.359375 154.664062 135.46875 192.558594 135.46875 239.300781 C 135.46875 286.042969 173.359375 323.9375 220.105469 323.9375 C 266.847656 323.9375 304.742188 286.042969 304.742188 239.300781 C 304.742188 192.558594 266.847656 154.664062 220.105469 154.664062 Z M 220.105469 154.664062 " clip-rule="nonzero"/></clipPath></defs><g clip-path="url(#985cf54780)"><g clip-path="url(#5e89baed47)"><path fill="#ed2481" d="M 20.164062 17.199219 L 225.847656 17.199219 L 225.847656 203.257812 L 20.164062 203.257812 Z M 20.164062 17.199219 " fill-opacity="1" fill-rule="nonzero"/></g></g><g clip-path="url(#999c875a15)"><path fill="#415ce6" d="M 96.648438 110.226562 L 249.472656 110.226562 L 249.472656 264.246094 L 96.648438 264.246094 Z M 96.648438 110.226562 " fill-opacity="1" fill-rule="nonzero"/></g><g clip-path="url(#fd8906634d)"><g clip-path="url(#7edf360b66)"><path fill="#48c1e8" d="M 135.46875 154.664062 L 304.742188 154.664062 L 304.742188 323.9375 L 135.46875 323.9375 Z M 135.46875 154.664062 " fill-opacity="1" fill-rule="nonzero"/></g></g></svg>