<svg xmlns="http://www.w3.org/2000/svg" xmlns:xlink="http://www.w3.org/1999/xlink" width="750" zoomAndPan="magnify" viewBox="0 0 562.5 562.499982" height="750" preserveAspectRatio="xMidYMid meet" version="1.0"><defs><clipPath id="cb6900dfcb"><path d="M 68 134 L 494.558594 134 L 494.558594 428 L 68 428 Z M 68 134 " clip-rule="nonzero"/></clipPath></defs><path fill="#ffffff" d="M 0 0 L 562 0 L 562 562 L 0 562 Z M 0 0 " fill-opacity="1" fill-rule="nonzero"/><path fill="#ed2481" d="M 0 0 L 562 0 L 562 562 L 0 562 Z M 0 0 " fill-opacity="1" fill-rule="nonzero"/><path fill="#6d09af" d="M 285.1875 307.359375 C 282.507812 307.359375 279.859375 306.941406 277.230469 306.085938 L 155.292969 265.417969 C 153.082031 271.164062 151.976562 278.566406 151.976562 289.371094 C 159.933594 293.976562 167.6875 303.238281 167.6875 319.203125 C 167.6875 328.984375 162.796875 336.019531 158.59375 340.691406 C 176.683594 361.679688 226.460938 376.773438 285.203125 376.773438 C 359.222656 376.773438 419.203125 352.820312 419.203125 323.324219 C 419.203125 316.808594 419.203125 290.191406 419.203125 264.0625 L 293.109375 306.085938 C 290.515625 306.941406 287.867188 307.359375 285.1875 307.359375 Z M 285.1875 307.359375 " fill-opacity="1" fill-rule="nonzero"/><g clip-path="url(#cb6900dfcb)"><path fill="#6d09af" d="M 488.832031 201.871094 L 287.835938 134.871094 C 286.09375 134.300781 284.265625 134.300781 282.542969 134.871094 L 81.542969 201.871094 C 78.125 203.007812 75.816406 206.207031 75.816406 209.808594 C 75.816406 213.410156 78.125 216.609375 81.542969 217.75 L 127.621094 233.109375 C 117.019531 245.402344 110.855469 262.738281 108.59375 290.945312 C 101.308594 294.378906 96.164062 301.699219 96.164062 310.308594 C 96.164062 319.070312 101.425781 326.523438 108.929688 329.890625 C 102.378906 386.921875 68.226562 405.933594 68.226562 410.808594 C 68.226562 413.285156 94.675781 427.558594 100.957031 427.558594 C 110.671875 427.558594 133.988281 411.074219 133.988281 375.480469 C 133.988281 354.511719 132.09375 338.664062 130.101562 327.425781 C 135.476562 323.523438 139.214844 317.476562 139.214844 310.308594 C 139.214844 302.484375 134.839844 295.953125 128.59375 292.183594 C 132.128906 245.636719 146.515625 237.847656 181.320312 223.410156 C 184.804688 222.035156 191.390625 219.375 195.191406 217.800781 C 202.023438 214.984375 208.207031 212.472656 214.136719 210.09375 C 233.28125 202.488281 249.460938 196.375 261.804688 191.835938 C 275.320312 187.011719 281.386719 185.253906 281.601562 185.1875 C 286.777344 183.445312 292.539062 186.242188 294.316406 191.519531 C 296.074219 196.777344 293.261719 202.472656 287.984375 204.25 C 287.582031 204.382812 264.066406 211.097656 202.878906 236.390625 C 198.941406 238.015625 195.191406 239.488281 191.625 240.898438 C 184.371094 243.761719 178.355469 246.054688 173.316406 248.367188 L 282.542969 284.765625 C 283.414062 285.03125 284.28125 285.183594 285.1875 285.183594 C 286.09375 285.183594 286.964844 285.03125 287.835938 284.75 L 488.832031 217.75 C 492.25 216.609375 494.558594 213.410156 494.558594 209.808594 C 494.558594 206.207031 492.25 203.007812 488.832031 201.871094 Z M 488.832031 201.871094 " fill-opacity="1" fill-rule="nonzero"/></g></svg>