<svg xmlns="http://www.w3.org/2000/svg" xmlns:xlink="http://www.w3.org/1999/xlink" width="750" zoomAndPan="magnify" viewBox="0 0 562.5 112.499997" height="150" preserveAspectRatio="xMidYMid meet" version="1.0"><defs><g/><clipPath id="f33b924bb7"><path d="M 104.660156 15.71875 L 160.167969 15.71875 L 160.167969 65.929688 L 104.660156 65.929688 Z M 104.660156 15.71875 " clip-rule="nonzero"/></clipPath><clipPath id="ce060e94a0"><path d="M 132.410156 15.71875 L 160.160156 65.929688 L 104.660156 65.929688 Z M 132.410156 15.71875 " clip-rule="nonzero"/></clipPath><clipPath id="93861d464a"><path d="M 125.300781 40.824219 L 166.542969 40.824219 L 166.542969 82.335938 L 125.300781 82.335938 Z M 125.300781 40.824219 " clip-rule="nonzero"/></clipPath><clipPath id="76108506e8"><path d="M 135.777344 52.816406 L 181.457031 52.816406 L 181.457031 98.496094 L 135.777344 98.496094 Z M 135.777344 52.816406 " clip-rule="nonzero"/></clipPath><clipPath id="48efb70826"><path d="M 158.617188 52.816406 C 146.003906 52.816406 135.777344 63.039062 135.777344 75.65625 C 135.777344 88.269531 146.003906 98.496094 158.617188 98.496094 C 171.234375 98.496094 181.457031 88.269531 181.457031 75.65625 C 181.457031 63.039062 171.234375 52.816406 158.617188 52.816406 Z M 158.617188 52.816406 " clip-rule="nonzero"/></clipPath></defs><g clip-path="url(#f33b924bb7)"><g clip-path="url(#ce060e94a0)"><path fill="#ed2481" d="M 104.660156 15.71875 L 160.167969 15.71875 L 160.167969 65.929688 L 104.660156 65.929688 Z M 104.660156 15.71875 " fill-opacity="1" fill-rule="nonzero"/></g></g><g clip-path="url(#93861d464a)"><path fill="#415ce6" d="M 125.300781 40.824219 L 166.542969 40.824219 L 166.542969 82.386719 L 125.300781 82.386719 Z M 125.300781 40.824219 " fill-opacity="1" fill-rule="nonzero"/></g><g clip-path="url(#76108506e8)"><g clip-path="url(#48efb70826)"><path fill="#48c1e8" d="M 135.777344 52.816406 L 181.457031 52.816406 L 181.457031 98.496094 L 135.777344 98.496094 Z M 135.777344 52.816406 " fill-opacity="1" fill-rule="nonzero"/></g></g><g fill="#ed2481" fill-opacity="1"><g transform="translate(198.190348, 98.30326)"><g><path d="M 0.582031 0 L 20.660156 0 L 25.417969 -16.25 L 53.160156 -16.25 L 57.804688 0 L 78.117188 0 L 51.652344 -82.640625 L 27.042969 -82.640625 Z M 28.4375 -30.292969 L 39.347656 -66.625 L 39.578125 -66.625 L 50.027344 -30.292969 Z M 28.4375 -30.292969 "/></g></g></g><g fill="#ed2481" fill-opacity="1"><g transform="translate(276.883377, 98.30326)"><g><path d="M 5.804688 0 L 25.535156 0 L 25.535156 -28.320312 L 41.902344 -28.320312 C 59.890625 -28.320312 71.617188 -38.882812 71.617188 -55.480469 C 71.617188 -71.964844 59.777344 -82.640625 41.320312 -82.640625 L 5.804688 -82.640625 Z M 25.535156 -43.0625 L 25.535156 -68.015625 L 38.1875 -68.015625 C 46.429688 -68.015625 51.765625 -63.027344 51.765625 -55.480469 C 51.765625 -47.9375 46.3125 -43.0625 38.1875 -43.0625 Z M 25.535156 -43.0625 "/></g></g></g><g fill="#ed2481" fill-opacity="1"><g transform="translate(350.469491, 98.30326)"><g><path d="M 5.804688 0 L 23.910156 0 L 23.910156 -58.847656 L 24.144531 -58.847656 L 45.152344 0 L 61.285156 0 L 82.292969 -58.964844 L 82.527344 -58.964844 L 82.527344 0 L 100.632812 0 L 100.632812 -82.640625 L 74.402344 -82.640625 L 53.390625 -22.402344 L 53.160156 -22.402344 L 32.269531 -82.640625 L 5.804688 -82.640625 Z M 5.804688 0 "/></g></g></g><path stroke-linecap="butt" transform="matrix(0.00000000189932, -1.088228, 1.088228, 0.00000000189932, 189.068271, 98.48784)" fill="none" stroke-linejoin="miter" d="M -0.000405069 0.500824 L 77.092357 0.500824 " stroke="#ffffff" stroke-width="1" stroke-opacity="1" stroke-miterlimit="4"/></svg>