<svg xmlns="http://www.w3.org/2000/svg" xmlns:xlink="http://www.w3.org/1999/xlink" width="750" zoomAndPan="magnify" viewBox="0 0 562.5 562.499982" height="750" preserveAspectRatio="xMidYMid meet" version="1.0"><defs><clipPath id="cfa33c2ff3"><path d="M 0 0 L 562 0 L 562 562 L 0 562 Z M 0 0 " clip-rule="nonzero"/></clipPath><clipPath id="01d9173d4f"><path d="M 190 67.027344 L 357 67.027344 L 357 99 L 190 99 Z M 190 67.027344 " clip-rule="nonzero"/></clipPath><clipPath id="aed64cfc14"><path d="M 212 149 L 334 149 L 334 494.898438 L 212 494.898438 Z M 212 149 " clip-rule="nonzero"/></clipPath><clipPath id="77c13722e1"><path d="M 179.472656 67.027344 L 273 67.027344 L 273 210 L 179.472656 210 Z M 179.472656 67.027344 " clip-rule="nonzero"/></clipPath><clipPath id="98d4103dfd"><path d="M 273 67.027344 L 366.808594 67.027344 L 366.808594 210 L 273 210 Z M 273 67.027344 " clip-rule="nonzero"/></clipPath></defs><path fill="#ffffff" d="M 0 0 L 562 0 L 562 562 L 0 562 Z M 0 0 " fill-opacity="1" fill-rule="nonzero"/><path fill="#ffffff" d="M 0 0 L 562 0 L 562 562 L 0 562 Z M 0 0 " fill-opacity="1" fill-rule="nonzero"/><g clip-path="url(#cfa33c2ff3)"><rect x="-56.25" width="675" fill="#380c9d" y="-56.249998" height="674.999978" fill-opacity="1"/></g><g clip-path="url(#01d9173d4f)"><path fill="#dbe3ce" d="M 356.09375 98.484375 L 190.152344 98.484375 L 190.152344 67.03125 L 356.125 67.03125 L 356.09375 98.484375 " fill-opacity="1" fill-rule="nonzero"/></g><g clip-path="url(#aed64cfc14)"><path fill="#ed2481" d="M 297.398438 229.441406 L 323.65625 149.3125 L 222.640625 149.3125 L 248.898438 229.441406 L 212.527344 426.722656 L 273.152344 494.964844 L 333.761719 426.722656 L 297.398438 229.441406 " fill-opacity="1" fill-rule="nonzero"/></g><path fill="#edf4e0" d="M 299.785156 242.410156 L 234.464844 307.726562 L 231.351562 324.625 L 301.933594 254.054688 L 299.785156 242.410156 " fill-opacity="1" fill-rule="nonzero"/><path fill="#edf4e0" d="M 306.402344 278.308594 L 304.257812 266.664062 L 227.976562 342.945312 L 224.863281 359.84375 L 306.402344 278.308594 " fill-opacity="1" fill-rule="nonzero"/><path fill="#edf4e0" d="M 215.3125 429.855469 L 221.804688 437.171875 L 317.957031 341.007812 L 315.8125 329.363281 L 215.3125 429.855469 " fill-opacity="1" fill-rule="nonzero"/><path fill="#edf4e0" d="M 239.441406 457.019531 L 323.792969 372.660156 L 321.648438 361.027344 L 232.949219 449.71875 L 239.441406 457.019531 " fill-opacity="1" fill-rule="nonzero"/><path fill="#48c1e8" d="M 297.847656 231.878906 L 297.398438 229.441406 L 298.195312 227.003906 L 248.105469 227.003906 L 248.898438 229.441406 L 248.453125 231.878906 L 297.847656 231.878906 " fill-opacity="1" fill-rule="nonzero"/><g clip-path="url(#77c13722e1)"><path fill="#edf4e0" d="M 272.476562 147.378906 L 211.886719 209.105469 L 179.46875 83.078125 L 190.132812 67.03125 L 272.476562 147.378906 " fill-opacity="1" fill-rule="nonzero"/></g><g clip-path="url(#98d4103dfd)"><path fill="#edf4e0" d="M 273.804688 147.378906 L 334.390625 209.105469 L 366.808594 83.078125 L 356.105469 67.03125 L 273.804688 147.378906 " fill-opacity="1" fill-rule="nonzero"/></g></svg>