<svg xmlns="http://www.w3.org/2000/svg" xmlns:xlink="http://www.w3.org/1999/xlink" width="750" zoomAndPan="magnify" viewBox="0 0 562.5 562.499982" height="750" preserveAspectRatio="xMidYMid meet" version="1.0"><defs><clipPath id="a8a57827d7"><path d="M 34.507812 159 L 527.570312 159 L 527.570312 464 L 34.507812 464 Z M 34.507812 159 " clip-rule="nonzero"/></clipPath></defs><path fill="#ffffff" d="M 0 0 L 562 0 L 562 562 L 0 562 Z M 0 0 " fill-opacity="1" fill-rule="nonzero"/><path fill="#415ce6" d="M 0 0 L 562 0 L 562 562 L 0 562 Z M 0 0 " fill-opacity="1" fill-rule="nonzero"/><g clip-path="url(#a8a57827d7)"><path fill="#fefae1" d="M 527.378906 176.667969 C 527.378906 179.480469 527.378906 182.300781 527.378906 185.117188 C 522.519531 192.617188 514.21875 196.03125 507.738281 201.605469 C 489.734375 211.449219 470.929688 218.105469 449.960938 216.226562 C 449.023438 216.15625 448.09375 216.097656 447.152344 216.03125 C 441.285156 214.273438 435.414062 212.511719 429.238281 210.664062 C 430.089844 216.816406 430.601562 222.578125 431.726562 228.214844 C 433.910156 239.144531 434.191406 250.382812 437.214844 261.167969 C 437.285156 262.101562 437.351562 263.039062 437.417969 263.972656 C 437.4375 266.390625 437.074219 268.871094 438.625 271.023438 C 438.789062 273.933594 438.0625 276.945312 439.554688 279.714844 C 439.722656 280.15625 439.898438 280.601562 440.070312 281.035156 L 439.953125 280.984375 C 440.222656 283.511719 440.195312 286.109375 440.800781 288.554688 C 444.71875 304.242188 448.570312 319.945312 452.851562 335.535156 C 456.007812 347.019531 457.480469 358.972656 462.453125 369.953125 C 461.664062 373.8125 464.484375 377.078125 464.265625 380.847656 C 464.003906 381.804688 464.460938 382.363281 465.28125 382.734375 C 465.394531 383.503906 465.511719 384.28125 465.628906 385.050781 C 470.265625 403.347656 474.910156 421.632812 479.546875 439.925781 C 479.546875 441.34375 479.546875 442.765625 479.546875 444.179688 C 478.078125 449.722656 475.527344 454.621094 471.148438 458.453125 C 469.703125 459.277344 468.253906 460.101562 466.800781 460.925781 C 451.101562 464.027344 442.152344 458.097656 438.585938 442.480469 C 437.519531 437.796875 435.933594 433.238281 434.585938 428.621094 C 433.945312 421.328125 431.402344 414.496094 429.484375 407.511719 C 427.710938 399.464844 426.082031 391.375 423.203125 383.628906 C 420.914062 372.226562 418.351562 360.898438 414.628906 349.863281 C 412.558594 340.261719 411.457031 330.371094 406.445312 321.609375 C 406.339844 320.21875 406.242188 318.832031 406.128906 317.441406 C 406.429688 315.753906 406.386719 314.152344 405.027344 312.863281 C 404.84375 311.566406 404.660156 310.261719 404.476562 308.960938 C 404.363281 308.488281 404.25 308.011719 404.136719 307.539062 C 404.5 306.816406 404.140625 306.636719 403.488281 306.671875 C 394.292969 306.070312 394.285156 306.070312 394.285156 314.785156 C 394.28125 355.832031 394.246094 396.871094 394.328125 437.921875 C 394.335938 443.652344 393.648438 449.097656 390.578125 454.046875 C 387.738281 456.714844 384.859375 459.324219 381.203125 460.871094 L 381.441406 461.082031 L 381.324219 461 L 380.984375 461.183594 C 380.507812 461.261719 380.035156 461.332031 379.5625 461.410156 C 379.117188 461.519531 378.664062 461.636719 378.21875 461.742188 C 364.414062 463.617188 354.214844 454.722656 354.199219 440.585938 C 354.15625 395.660156 354.546875 350.726562 353.992188 305.804688 C 353.789062 289.824219 350.304688 274.027344 347.238281 258.300781 C 347.148438 257.363281 347.066406 256.429688 346.984375 255.488281 C 346.5 252.207031 346.015625 248.929688 345.527344 245.648438 C 345.820312 243.769531 345.921875 241.917969 344.933594 240.179688 C 343.425781 232.117188 344.070312 223.640625 340.292969 216.015625 C 340.226562 214.160156 340.171875 212.300781 340.109375 210.441406 C 339.988281 210.011719 339.863281 209.574219 339.746094 209.136719 C 338.25 205.246094 333.222656 203.792969 332.84375 199.140625 C 337.132812 196.128906 341.417969 193.121094 347.171875 189.085938 C 340.046875 190.097656 336.421875 193.980469 332.054688 196.363281 C 326.382812 199.457031 324.492188 203.828125 324.519531 210.519531 C 324.824219 287.207031 324.75 363.898438 324.765625 440.585938 C 324.765625 452.628906 317.925781 461.28125 307.527344 462.550781 C 296.171875 463.941406 288.152344 457.921875 284.871094 445.5625 C 284.894531 403.46875 284.9375 361.371094 284.902344 319.277344 C 284.902344 317.851562 285.898438 315.957031 283.796875 314.988281 C 278.511719 313.316406 276.535156 315.238281 277.089844 320.691406 C 277.441406 324.160156 277.070312 327.699219 277.070312 331.210938 C 277.097656 367.472656 277.054688 403.730469 277.222656 439.996094 C 277.253906 447.382812 275.71875 453.789062 269.542969 458.4375 C 256.996094 467.878906 242.96875 462.335938 237.125 445.613281 C 237.101562 445.121094 237.082031 444.628906 237.0625 444.136719 C 237.125 441.792969 237.242188 439.453125 237.246094 437.117188 C 237.28125 361.15625 237.304688 285.199219 237.332031 209.242188 C 237.332031 200.582031 227.210938 191.183594 218.226562 191.371094 C 221.464844 193.800781 225.953125 195.632812 227.832031 198.945312 C 230.6875 203.957031 223.59375 205.246094 222.164062 208.957031 C 221.835938 209.828125 221.449219 210.710938 221.328125 211.625 C 220.09375 220.609375 217.773438 229.457031 217.753906 238.605469 C 217.644531 239.511719 217.527344 240.421875 217.417969 241.332031 C 216.421875 242.082031 216.332031 243.101562 216.550781 244.222656 C 216.402344 246.089844 216.25 247.957031 216.09375 249.824219 C 214.953125 251.566406 214.8125 253.496094 215.035156 255.492188 C 214.949219 256.433594 214.867188 257.367188 214.785156 258.300781 C 212.398438 267.070312 211.597656 276.066406 210.765625 285.0625 C 210.660156 285.988281 210.5625 286.90625 210.460938 287.828125 C 209.433594 289.089844 209.207031 290.527344 209.507812 292.085938 C 209.355469 293.945312 209.203125 295.816406 209.054688 297.675781 C 207.816406 299.265625 207.8125 301.15625 207.816406 303.019531 C 207.875 323.78125 207.941406 344.542969 208.011719 365.304688 C 208.011719 372.355469 208.011719 379.410156 208.011719 386.460938 C 208.011719 393.488281 208.011719 400.511719 208.011719 407.542969 C 208.011719 414.59375 208.011719 421.644531 208.011719 428.695312 C 207.160156 435.699219 208.925781 442.878906 206.570312 449.773438 C 206.246094 450.097656 206.152344 450.472656 206.292969 450.910156 C 201.582031 457.917969 195.144531 461.984375 186.609375 462.492188 C 185.71875 462.226562 184.828125 461.960938 183.9375 461.699219 C 182.960938 461.535156 181.988281 461.363281 181.011719 461.195312 C 171.265625 456.4375 167.824219 448.722656 168.042969 437.886719 C 168.578125 411.429688 168.214844 384.953125 168.214844 358.484375 C 168.214844 342.792969 168.121094 327.097656 168.296875 311.410156 C 168.328125 308.160156 167.324219 306.5 164.117188 306.429688 C 161.738281 306.378906 158.363281 304.683594 157.601562 308.339844 C 156.574219 313.269531 153.6875 317.789062 154.242188 323.0625 C 151.796875 329.945312 149.859375 336.953125 148.804688 344.183594 C 148.480469 344.589844 148.417969 345.027344 148.640625 345.5 C 148.40625 345.941406 148.183594 346.382812 147.957031 346.824219 C 147.671875 348.277344 147.390625 349.726562 147.109375 351.183594 C 141.769531 369.324219 136.992188 387.613281 133.175781 406.140625 C 130.3125 413.390625 128.648438 420.957031 127.421875 428.621094 C 125.066406 436.59375 122.710938 444.5625 120.355469 452.527344 L 120.414062 452.449219 C 113.8125 460.605469 105.632812 464.113281 95.203125 460.996094 L 95.253906 461.019531 C 94.789062 460.695312 94.320312 460.382812 93.863281 460.058594 C 91.777344 458.46875 89.691406 456.886719 87.613281 455.300781 C 87.296875 454.960938 86.992188 454.617188 86.675781 454.277344 L 86.511719 454.058594 C 86.117188 453.546875 85.726562 453.039062 85.335938 452.53125 C 85.136719 452.039062 84.929688 451.550781 84.726562 451.0625 C 84.453125 450.636719 84.1875 450.210938 83.917969 449.785156 L 83.914062 449.785156 C 81.363281 442.574219 84.089844 435.679688 85.167969 428.6875 C 85.5 428.289062 85.566406 427.851562 85.351562 427.375 C 85.578125 426.933594 85.808594 426.484375 86.03125 426.042969 C 86.191406 420.589844 89.90625 415.980469 89.691406 410.4375 C 92.878906 402.222656 94.457031 393.589844 96.394531 385.042969 C 99.824219 371.460938 103.253906 357.878906 106.683594 344.296875 C 109.304688 334.539062 112.035156 324.808594 114.527344 315.015625 C 119.015625 297.351562 123.984375 279.769531 124.859375 261.398438 C 126.835938 258.261719 126.101562 254.734375 126.300781 251.339844 C 127.59375 249.628906 127.636719 247.679688 127.363281 245.671875 C 127.476562 244.75 127.59375 243.832031 127.703125 242.90625 C 128.894531 236.082031 129.976562 229.238281 131.285156 222.433594 C 133.433594 211.296875 133.070312 210.816406 122.101562 214.023438 C 119.695312 214.726562 116.851562 213.886719 114.863281 216.023438 C 113.925781 216.089844 112.988281 216.152344 112.054688 216.21875 C 91.734375 217.84375 73.234375 212.128906 55.777344 202.230469 C 55.464844 201.878906 55.085938 201.769531 54.632812 201.90625 C 53.535156 200.363281 51.957031 199.5625 50.203125 199.039062 L 50.277344 199.097656 C 49.292969 197.507812 47.714844 196.746094 46.046875 196.128906 L 46.144531 196.21875 C 42.074219 192.757812 37.617188 189.707031 34.640625 185.109375 C 34.640625 182.296875 34.640625 179.476562 34.640625 176.664062 C 39.273438 169.382812 45.484375 166.53125 53.878906 169.796875 C 56.25 172.914062 59.488281 174.886719 62.90625 176.613281 C 73.820312 184.519531 85.539062 190.496094 99.324219 190.953125 C 103.691406 191.097656 106.597656 192.238281 108.203125 196.699219 C 109.242188 199.578125 112.050781 201.179688 115.039062 202.34375 C 123.277344 205.546875 135.800781 200.148438 141.925781 189.414062 C 136.417969 192.890625 132.148438 195.53125 127.933594 198.25 C 124.402344 200.53125 120.851562 201.34375 116.71875 199.679688 C 106.855469 195.710938 105.96875 185.453125 114.859375 176.652344 C 116.8125 175.378906 118.761719 174.105469 120.714844 172.832031 C 129.25 168.585938 137.519531 163.875 146.640625 160.769531 C 151.015625 159.277344 152.933594 159.734375 155.300781 164.03125 C 168.484375 187.925781 199.273438 191.945312 218.308594 172.613281 C 221.726562 169.140625 223.8125 161.785156 231.019531 167.839844 C 231.40625 168.164062 233.3125 166.617188 234.554688 166.019531 C 238.734375 163.996094 242.972656 162.0625 247.132812 159.996094 C 250.402344 158.367188 252.722656 158.855469 255.722656 161.421875 C 269.691406 173.367188 289.851562 174.347656 304.210938 163.015625 C 309.382812 158.929688 313.144531 159.246094 318.34375 161.421875 C 324 163.792969 328.867188 169.675781 336.25 165.605469 C 338.355469 164.445312 339.128906 167.171875 340.242188 168.589844 C 359.042969 192.449219 392.648438 189.835938 407.273438 163.15625 C 409.300781 159.460938 411.03125 159.171875 414.335938 160.503906 C 419.910156 162.753906 425.566406 164.816406 431.175781 166.960938 C 436.496094 170.199219 441.816406 173.433594 447.136719 176.667969 C 447.945312 177.496094 448.75 178.316406 449.554688 179.144531 C 454.375 184.074219 454.984375 190.273438 451.160156 195.464844 C 447.195312 200.839844 440.4375 202.109375 434.390625 198.46875 C 430.609375 196.1875 427.054688 193.492188 423.167969 191.40625 C 421.257812 190.378906 419.320312 187.898438 416.34375 189.851562 C 421.851562 193.621094 427.023438 197.410156 432.441406 200.808594 C 440.179688 205.671875 450.179688 204.214844 453.722656 196.695312 C 456.0625 191.734375 459.417969 191.261719 463.492188 190.992188 C 476.96875 190.085938 488.441406 184.320312 499.164062 176.632812 C 499.695312 176.261719 500.230469 175.886719 500.769531 175.519531 C 504.050781 173.382812 507.328125 171.25 510.609375 169.113281 C 511.183594 168.859375 511.765625 168.597656 512.339844 168.332031 C 514.066406 168.3125 515.796875 168.292969 517.519531 168.273438 C 521.988281 169.660156 524.707031 173.136719 527.378906 176.667969 Z M 527.378906 176.667969 " fill-opacity="1" fill-rule="evenodd"/></g><path fill="#fefae1" d="M 338.570312 130.226562 C 344.828125 118.210938 354.667969 111.085938 367.980469 108.707031 C 368.699219 108.664062 369.410156 108.621094 370.125 108.574219 C 370.917969 108.613281 371.710938 108.640625 372.503906 108.679688 C 389.917969 109.511719 400.941406 118.949219 407.402344 134.550781 C 410.570312 150.515625 407.078125 164.390625 393.660156 174.429688 C 375.640625 187.914062 348.089844 182.839844 337.207031 156.984375 C 337.34375 156.019531 336.75 155.617188 335.964844 155.367188 C 336.007812 154.941406 335.949219 154.53125 335.800781 154.128906 C 336.023438 146.078125 335.160156 137.902344 338.570312 130.226562 Z M 338.570312 130.226562 " fill-opacity="1" fill-rule="evenodd"/><path fill="#fefae1" d="M 274.046875 95.042969 C 274.492188 94.976562 274.933594 94.910156 275.378906 94.839844 C 289.527344 93.671875 301.207031 98.550781 310.519531 109.210938 C 310.84375 109.691406 311.179688 110.171875 311.5 110.644531 C 315.296875 117.617188 317.660156 124.992188 317.734375 133.003906 C 317.636719 134.394531 317.546875 135.785156 317.449219 137.183594 C 316.363281 138.421875 316.070312 139.859375 316.355469 141.445312 C 311.246094 154.605469 302.664062 164.011719 288.265625 166.789062 C 270.605469 170.199219 254.546875 161.65625 247.382812 145.257812 C 246.835938 143.992188 246.25 142.746094 245.683594 141.488281 C 245.867188 139.898438 245.648438 138.421875 244.539062 137.179688 C 244.441406 135.785156 244.34375 134.394531 244.25 133.003906 C 245.441406 112.832031 254.019531 101.90625 274.046875 95.042969 Z M 274.046875 95.042969 " fill-opacity="1" fill-rule="evenodd"/><path fill="#fefae1" d="M 182.4375 109.007812 C 187.597656 109.054688 192.761719 109.097656 197.917969 109.140625 C 201.535156 110.597656 205.15625 112.050781 208.777344 113.515625 C 214.480469 117.890625 219.308594 123.0625 223.078125 129.199219 C 224.171875 133.28125 225.257812 137.363281 226.351562 141.445312 C 225.445312 161.546875 217.589844 174.035156 202.460938 179.425781 C 186.074219 185.257812 167.027344 178.554688 158.71875 164.015625 C 149.484375 147.863281 152.910156 128.414062 167.03125 116.800781 C 168.445312 115.640625 169.894531 114.515625 171.320312 113.371094 C 175.023438 111.917969 178.726562 110.460938 182.4375 109.007812 Z M 182.4375 109.007812 " fill-opacity="1" fill-rule="evenodd"/></svg>