<svg xmlns="http://www.w3.org/2000/svg" xmlns:xlink="http://www.w3.org/1999/xlink" width="6912" zoomAndPan="magnify" viewBox="0 0 5184 2592.000001" height="3456" preserveAspectRatio="xMidYMid meet" version="1.0"><defs><g/><clipPath id="678e321a89"><path d="M 2018.515625 1969.699219 L 3078.808594 1969.699219 L 3078.808594 2122.105469 L 2018.515625 2122.105469 Z M 2018.515625 1969.699219 " clip-rule="nonzero"/></clipPath><clipPath id="0190e16dac"><path d="M 2094.71875 1969.699219 L 3002.078125 1969.699219 C 3044.164062 1969.699219 3078.28125 2003.816406 3078.28125 2045.902344 C 3078.28125 2087.988281 3044.164062 2122.105469 3002.078125 2122.105469 L 2094.71875 2122.105469 C 2052.632812 2122.105469 2018.515625 2087.988281 2018.515625 2045.902344 C 2018.515625 2003.816406 2052.632812 1969.699219 2094.71875 1969.699219 Z M 2094.71875 1969.699219 " clip-rule="nonzero"/></clipPath></defs><g fill="#3c57e7" fill-opacity="1"><g transform="translate(1486.171174, 1084.528761)"><g><path d="M 163.671875 -206.421875 C 163.671875 -206.222656 164.550781 -203.175781 166.3125 -197.28125 C 168.082031 -191.382812 170.394531 -183.519531 173.25 -173.6875 C 176.101562 -163.863281 179.296875 -152.851562 182.828125 -140.65625 C 186.367188 -128.46875 190.054688 -115.835938 193.890625 -102.765625 C 197.722656 -89.691406 201.457031 -77.0625 205.09375 -64.875 C 208.726562 -52.6875 211.972656 -41.726562 214.828125 -32 C 217.679688 -22.269531 219.941406 -14.503906 221.609375 -8.703125 C 223.273438 -2.898438 224.109375 0 224.109375 0 L 138.59375 0 L 132.703125 -29.484375 L 94.359375 -29.484375 L 88.46875 0 L 2.953125 0 L 63.40625 -206.421875 Z M 103.21875 -76.671875 L 123.859375 -76.671875 L 113.53125 -129.75 Z M 103.21875 -76.671875 "/></g></g></g><g fill="#3c57e7" fill-opacity="1"><g transform="translate(1713.231279, 1084.528761)"><g><path d="M 81.09375 -56.03125 C 84.832031 -56.03125 87.734375 -56.960938 89.796875 -58.828125 C 91.859375 -60.691406 92.890625 -62.707031 92.890625 -64.875 C 92.890625 -67.425781 90.972656 -69.632812 87.140625 -71.5 C 83.304688 -73.375 78.390625 -75.441406 72.390625 -77.703125 C 66.398438 -79.960938 60.007812 -82.710938 53.21875 -85.953125 C 46.4375 -89.203125 40 -93.332031 33.90625 -98.34375 C 27.8125 -103.351562 22.847656 -109.59375 19.015625 -117.0625 C 15.179688 -124.539062 13.265625 -133.6875 13.265625 -144.5 C 13.265625 -155.894531 16.703125 -166.601562 23.578125 -176.625 C 30.460938 -186.65625 40.195312 -194.863281 52.78125 -201.25 C 65.363281 -207.644531 80.207031 -210.84375 97.3125 -210.84375 C 110.675781 -210.84375 122.320312 -209.21875 132.25 -205.96875 C 142.1875 -202.726562 150.445312 -198.945312 157.03125 -194.625 C 163.613281 -190.300781 168.578125 -186.515625 171.921875 -183.265625 C 175.265625 -180.023438 176.9375 -178.40625 176.9375 -178.40625 L 148.921875 -134.171875 C 148.921875 -134.171875 147.148438 -135.546875 143.609375 -138.296875 C 140.066406 -141.054688 135.394531 -143.757812 129.59375 -146.40625 C 123.800781 -149.0625 117.460938 -150.390625 110.578125 -150.390625 C 106.847656 -150.390625 103.945312 -149.457031 101.875 -147.59375 C 99.8125 -145.726562 98.78125 -143.710938 98.78125 -141.546875 C 98.78125 -139.191406 100.695312 -137.03125 104.53125 -135.0625 C 108.375 -133.09375 113.34375 -130.976562 119.4375 -128.71875 C 125.53125 -126.457031 131.96875 -123.703125 138.75 -120.453125 C 145.53125 -117.210938 151.914062 -113.085938 157.90625 -108.078125 C 163.90625 -103.066406 168.820312 -96.820312 172.65625 -89.34375 C 176.488281 -81.875 178.40625 -72.734375 178.40625 -61.921875 C 178.40625 -50.722656 174.960938 -40.0625 168.078125 -29.9375 C 161.203125 -19.8125 151.519531 -11.550781 139.03125 -5.15625 C 126.550781 1.226562 111.660156 4.421875 94.359375 4.421875 C 78.242188 4.421875 64.382812 2.65625 52.78125 -0.875 C 41.1875 -4.414062 31.703125 -8.546875 24.328125 -13.265625 C 16.953125 -17.984375 11.546875 -22.113281 8.109375 -25.65625 C 4.671875 -29.195312 2.953125 -30.96875 2.953125 -30.96875 L 30.96875 -75.203125 C 30.96875 -75.203125 32.191406 -74.21875 34.640625 -72.25 C 37.097656 -70.28125 40.539062 -68.066406 44.96875 -65.609375 C 49.394531 -63.148438 54.703125 -60.9375 60.890625 -58.96875 C 67.085938 -57.007812 73.820312 -56.03125 81.09375 -56.03125 Z M 81.09375 -56.03125 "/></g></g></g><g fill="#3c57e7" fill-opacity="1"><g transform="translate(1897.533297, 1084.528761)"><g><path d="M 81.09375 -56.03125 C 84.832031 -56.03125 87.734375 -56.960938 89.796875 -58.828125 C 91.859375 -60.691406 92.890625 -62.707031 92.890625 -64.875 C 92.890625 -67.425781 90.972656 -69.632812 87.140625 -71.5 C 83.304688 -73.375 78.390625 -75.441406 72.390625 -77.703125 C 66.398438 -79.960938 60.007812 -82.710938 53.21875 -85.953125 C 46.4375 -89.203125 40 -93.332031 33.90625 -98.34375 C 27.8125 -103.351562 22.847656 -109.59375 19.015625 -117.0625 C 15.179688 -124.539062 13.265625 -133.6875 13.265625 -144.5 C 13.265625 -155.894531 16.703125 -166.601562 23.578125 -176.625 C 30.460938 -186.65625 40.195312 -194.863281 52.78125 -201.25 C 65.363281 -207.644531 80.207031 -210.84375 97.3125 -210.84375 C 110.675781 -210.84375 122.320312 -209.21875 132.25 -205.96875 C 142.1875 -202.726562 150.445312 -198.945312 157.03125 -194.625 C 163.613281 -190.300781 168.578125 -186.515625 171.921875 -183.265625 C 175.265625 -180.023438 176.9375 -178.40625 176.9375 -178.40625 L 148.921875 -134.171875 C 148.921875 -134.171875 147.148438 -135.546875 143.609375 -138.296875 C 140.066406 -141.054688 135.394531 -143.757812 129.59375 -146.40625 C 123.800781 -149.0625 117.460938 -150.390625 110.578125 -150.390625 C 106.847656 -150.390625 103.945312 -149.457031 101.875 -147.59375 C 99.8125 -145.726562 98.78125 -143.710938 98.78125 -141.546875 C 98.78125 -139.191406 100.695312 -137.03125 104.53125 -135.0625 C 108.375 -133.09375 113.34375 -130.976562 119.4375 -128.71875 C 125.53125 -126.457031 131.96875 -123.703125 138.75 -120.453125 C 145.53125 -117.210938 151.914062 -113.085938 157.90625 -108.078125 C 163.90625 -103.066406 168.820312 -96.820312 172.65625 -89.34375 C 176.488281 -81.875 178.40625 -72.734375 178.40625 -61.921875 C 178.40625 -50.722656 174.960938 -40.0625 168.078125 -29.9375 C 161.203125 -19.8125 151.519531 -11.550781 139.03125 -5.15625 C 126.550781 1.226562 111.660156 4.421875 94.359375 4.421875 C 78.242188 4.421875 64.382812 2.65625 52.78125 -0.875 C 41.1875 -4.414062 31.703125 -8.546875 24.328125 -13.265625 C 16.953125 -17.984375 11.546875 -22.113281 8.109375 -25.65625 C 4.671875 -29.195312 2.953125 -30.96875 2.953125 -30.96875 L 30.96875 -75.203125 C 30.96875 -75.203125 32.191406 -74.21875 34.640625 -72.25 C 37.097656 -70.28125 40.539062 -68.066406 44.96875 -65.609375 C 49.394531 -63.148438 54.703125 -60.9375 60.890625 -58.96875 C 67.085938 -57.007812 73.820312 -56.03125 81.09375 -56.03125 Z M 81.09375 -56.03125 "/></g></g></g><g fill="#3c57e7" fill-opacity="1"><g transform="translate(2081.835338, 1084.528761)"><g><path d="M 159.234375 -103.21875 C 159.234375 -113.632812 156.039062 -122.132812 149.65625 -128.71875 C 143.269531 -135.300781 135.648438 -138.59375 126.796875 -138.59375 C 117.953125 -138.59375 110.332031 -135.300781 103.9375 -128.71875 C 97.550781 -122.132812 94.359375 -113.632812 94.359375 -103.21875 C 94.359375 -92.988281 97.550781 -84.53125 103.9375 -77.84375 C 110.332031 -71.164062 117.953125 -67.828125 126.796875 -67.828125 C 135.648438 -67.828125 143.269531 -71.164062 149.65625 -77.84375 C 156.039062 -84.53125 159.234375 -92.988281 159.234375 -103.21875 Z M 241.8125 -103.21875 C 241.8125 -88.070312 239.007812 -73.960938 233.40625 -60.890625 C 227.800781 -47.816406 219.882812 -36.414062 209.65625 -26.6875 C 199.4375 -16.957031 187.296875 -9.335938 173.234375 -3.828125 C 159.179688 1.671875 143.703125 4.421875 126.796875 4.421875 C 109.890625 4.421875 94.40625 1.671875 80.34375 -3.828125 C 66.289062 -9.335938 54.15625 -16.957031 43.9375 -26.6875 C 33.71875 -36.414062 25.804688 -47.816406 20.203125 -60.890625 C 14.597656 -73.960938 11.796875 -88.070312 11.796875 -103.21875 C 11.796875 -118.351562 14.597656 -132.457031 20.203125 -145.53125 C 25.804688 -158.601562 33.71875 -170.003906 43.9375 -179.734375 C 54.15625 -189.460938 66.289062 -197.078125 80.34375 -202.578125 C 94.40625 -208.085938 109.890625 -210.84375 126.796875 -210.84375 C 143.703125 -210.84375 159.179688 -208.085938 173.234375 -202.578125 C 187.296875 -197.078125 199.4375 -189.460938 209.65625 -179.734375 C 219.882812 -170.003906 227.800781 -158.601562 233.40625 -145.53125 C 239.007812 -132.457031 241.8125 -118.351562 241.8125 -103.21875 Z M 241.8125 -103.21875 "/></g></g></g><g fill="#3c57e7" fill-opacity="1"><g transform="translate(2335.434918, 1084.528761)"><g><path d="M 11.796875 -103.21875 C 11.796875 -118.351562 14.546875 -132.457031 20.046875 -145.53125 C 25.554688 -158.601562 33.273438 -170.003906 43.203125 -179.734375 C 53.128906 -189.460938 64.675781 -197.078125 77.84375 -202.578125 C 91.019531 -208.085938 105.375 -210.84375 120.90625 -210.84375 C 134.863281 -210.84375 147.050781 -209.21875 157.46875 -205.96875 C 167.882812 -202.726562 176.484375 -198.945312 183.265625 -194.625 C 190.054688 -190.300781 195.117188 -186.515625 198.453125 -183.265625 C 201.796875 -180.023438 203.46875 -178.40625 203.46875 -178.40625 L 168.09375 -122.375 C 168.09375 -122.375 166.320312 -123.75 162.78125 -126.5 C 159.238281 -129.257812 154.566406 -131.960938 148.765625 -134.609375 C 142.972656 -137.265625 136.632812 -138.59375 129.75 -138.59375 C 119.53125 -138.59375 111.078125 -135.300781 104.390625 -128.71875 C 97.703125 -122.132812 94.359375 -113.632812 94.359375 -103.21875 C 94.359375 -92.988281 97.703125 -84.53125 104.390625 -77.84375 C 111.078125 -71.164062 119.53125 -67.828125 129.75 -67.828125 C 136.632812 -67.828125 142.972656 -69.203125 148.765625 -71.953125 C 154.566406 -74.703125 159.238281 -77.40625 162.78125 -80.0625 C 166.320312 -82.71875 168.09375 -84.046875 168.09375 -84.046875 L 203.46875 -28.015625 C 203.46875 -28.015625 201.796875 -26.390625 198.453125 -23.140625 C 195.117188 -19.898438 190.054688 -16.117188 183.265625 -11.796875 C 176.484375 -7.472656 167.882812 -3.6875 157.46875 -0.4375 C 147.050781 2.800781 134.863281 4.421875 120.90625 4.421875 C 105.375 4.421875 91.019531 1.671875 77.84375 -3.828125 C 64.675781 -9.335938 53.128906 -16.957031 43.203125 -26.6875 C 33.273438 -36.414062 25.554688 -47.816406 20.046875 -60.890625 C 14.546875 -73.960938 11.796875 -88.070312 11.796875 -103.21875 Z M 11.796875 -103.21875 "/></g></g></g><g fill="#3c57e7" fill-opacity="1"><g transform="translate(2544.801978, 1084.528761)"><g><path d="M 94.359375 -206.421875 L 94.359375 0 L 17.6875 0 L 17.6875 -206.421875 Z M 94.359375 -206.421875 "/></g></g></g><g fill="#3c57e7" fill-opacity="1"><g transform="translate(2656.857649, 1084.528761)"><g><path d="M 163.671875 -206.421875 C 163.671875 -206.222656 164.550781 -203.175781 166.3125 -197.28125 C 168.082031 -191.382812 170.394531 -183.519531 173.25 -173.6875 C 176.101562 -163.863281 179.296875 -152.851562 182.828125 -140.65625 C 186.367188 -128.46875 190.054688 -115.835938 193.890625 -102.765625 C 197.722656 -89.691406 201.457031 -77.0625 205.09375 -64.875 C 208.726562 -52.6875 211.972656 -41.726562 214.828125 -32 C 217.679688 -22.269531 219.941406 -14.503906 221.609375 -8.703125 C 223.273438 -2.898438 224.109375 0 224.109375 0 L 138.59375 0 L 132.703125 -29.484375 L 94.359375 -29.484375 L 88.46875 0 L 2.953125 0 L 63.40625 -206.421875 Z M 103.21875 -76.671875 L 123.859375 -76.671875 L 113.53125 -129.75 Z M 103.21875 -76.671875 "/></g></g></g><g fill="#3c57e7" fill-opacity="1"><g transform="translate(2883.917777, 1084.528761)"><g><path d="M 5.890625 -206.421875 L 194.625 -206.421875 L 194.625 -138.59375 L 138.59375 -138.59375 L 138.59375 0 L 61.921875 0 L 61.921875 -138.59375 L 5.890625 -138.59375 Z M 5.890625 -206.421875 "/></g></g></g><g fill="#3c57e7" fill-opacity="1"><g transform="translate(3084.4384, 1084.528761)"><g><path d="M 94.359375 -206.421875 L 94.359375 0 L 17.6875 0 L 17.6875 -206.421875 Z M 94.359375 -206.421875 "/></g></g></g><g fill="#3c57e7" fill-opacity="1"><g transform="translate(3196.49398, 1084.528761)"><g><path d="M 159.234375 -103.21875 C 159.234375 -113.632812 156.039062 -122.132812 149.65625 -128.71875 C 143.269531 -135.300781 135.648438 -138.59375 126.796875 -138.59375 C 117.953125 -138.59375 110.332031 -135.300781 103.9375 -128.71875 C 97.550781 -122.132812 94.359375 -113.632812 94.359375 -103.21875 C 94.359375 -92.988281 97.550781 -84.53125 103.9375 -77.84375 C 110.332031 -71.164062 117.953125 -67.828125 126.796875 -67.828125 C 135.648438 -67.828125 143.269531 -71.164062 149.65625 -77.84375 C 156.039062 -84.53125 159.234375 -92.988281 159.234375 -103.21875 Z M 241.8125 -103.21875 C 241.8125 -88.070312 239.007812 -73.960938 233.40625 -60.890625 C 227.800781 -47.816406 219.882812 -36.414062 209.65625 -26.6875 C 199.4375 -16.957031 187.296875 -9.335938 173.234375 -3.828125 C 159.179688 1.671875 143.703125 4.421875 126.796875 4.421875 C 109.890625 4.421875 94.40625 1.671875 80.34375 -3.828125 C 66.289062 -9.335938 54.15625 -16.957031 43.9375 -26.6875 C 33.71875 -36.414062 25.804688 -47.816406 20.203125 -60.890625 C 14.597656 -73.960938 11.796875 -88.070312 11.796875 -103.21875 C 11.796875 -118.351562 14.597656 -132.457031 20.203125 -145.53125 C 25.804688 -158.601562 33.71875 -170.003906 43.9375 -179.734375 C 54.15625 -189.460938 66.289062 -197.078125 80.34375 -202.578125 C 94.40625 -208.085938 109.890625 -210.84375 126.796875 -210.84375 C 143.703125 -210.84375 159.179688 -208.085938 173.234375 -202.578125 C 187.296875 -197.078125 199.4375 -189.460938 209.65625 -179.734375 C 219.882812 -170.003906 227.800781 -158.601562 233.40625 -145.53125 C 239.007812 -132.457031 241.8125 -118.351562 241.8125 -103.21875 Z M 241.8125 -103.21875 "/></g></g></g><g fill="#3c57e7" fill-opacity="1"><g transform="translate(3450.093515, 1084.528761)"><g><path d="M 144.5 0 L 94.359375 -91.421875 L 94.359375 0 L 17.6875 0 L 17.6875 -206.421875 L 103.21875 -206.421875 L 153.34375 -115 L 153.34375 -206.421875 L 230.015625 -206.421875 L 230.015625 0 Z M 144.5 0 "/></g></g></g><g fill="#3c57e7" fill-opacity="1"><g transform="translate(1812.025917, 1483.374869)"><g><path d="M 106.15625 -209.375 C 127.78125 -209.375 145.570312 -206.328125 159.53125 -200.234375 C 173.488281 -194.140625 183.8125 -185.6875 190.5 -174.875 C 197.1875 -164.0625 200.53125 -151.476562 200.53125 -137.125 C 200.53125 -122.96875 197.382812 -110.429688 191.09375 -99.515625 C 184.800781 -88.609375 175.707031 -80.109375 163.8125 -74.015625 C 151.914062 -67.921875 137.613281 -64.875 120.90625 -64.875 C 116.96875 -64.875 112.9375 -65.019531 108.8125 -65.3125 C 104.6875 -65.613281 101.242188 -65.859375 98.484375 -66.046875 C 95.734375 -66.242188 94.359375 -66.34375 94.359375 -66.34375 L 94.359375 0 L 17.6875 0 L 17.6875 -206.421875 C 17.6875 -206.421875 21.765625 -206.664062 29.921875 -207.15625 C 38.085938 -207.644531 48.898438 -208.132812 62.359375 -208.625 C 75.828125 -209.125 90.425781 -209.375 106.15625 -209.375 Z M 94.359375 -120.90625 L 106.15625 -120.90625 C 111.269531 -120.90625 115.5 -122.523438 118.84375 -125.765625 C 122.1875 -129.015625 123.859375 -132.800781 123.859375 -137.125 C 123.859375 -141.644531 122.1875 -145.476562 118.84375 -148.625 C 115.5 -151.769531 111.269531 -153.34375 106.15625 -153.34375 L 94.359375 -153.34375 Z M 94.359375 -120.90625 "/></g></g></g><g fill="#3c57e7" fill-opacity="1"><g transform="translate(2021.392999, 1483.374869)"><g><path d="M 221.171875 0 L 132.703125 0 L 97.3125 -67.828125 L 94.359375 -67.828125 L 94.359375 0 L 17.6875 0 L 17.6875 -206.421875 C 17.6875 -206.421875 20.046875 -206.566406 24.765625 -206.859375 C 29.484375 -207.160156 35.875 -207.503906 43.9375 -207.890625 C 52 -208.285156 61.140625 -208.628906 71.359375 -208.921875 C 81.585938 -209.222656 92.207031 -209.375 103.21875 -209.375 C 124.84375 -209.375 142.632812 -206.328125 156.59375 -200.234375 C 170.550781 -194.140625 180.867188 -185.6875 187.546875 -174.875 C 194.234375 -164.0625 197.578125 -151.476562 197.578125 -137.125 C 197.578125 -126.507812 196.25 -117.515625 193.59375 -110.140625 C 190.9375 -102.765625 187.835938 -96.816406 184.296875 -92.296875 C 180.765625 -87.773438 177.671875 -84.53125 175.015625 -82.5625 C 172.359375 -80.601562 171.03125 -79.625 171.03125 -79.625 Z M 94.359375 -120.90625 L 103.21875 -120.90625 C 108.320312 -120.90625 112.546875 -122.523438 115.890625 -125.765625 C 119.234375 -129.015625 120.90625 -132.800781 120.90625 -137.125 C 120.90625 -141.644531 119.234375 -145.476562 115.890625 -148.625 C 112.546875 -151.769531 108.320312 -153.34375 103.21875 -153.34375 L 94.359375 -153.34375 Z M 94.359375 -120.90625 "/></g></g></g><g fill="#3c57e7" fill-opacity="1"><g transform="translate(2236.657786, 1483.374869)"><g><path d="M 159.234375 -103.21875 C 159.234375 -113.632812 156.039062 -122.132812 149.65625 -128.71875 C 143.269531 -135.300781 135.648438 -138.59375 126.796875 -138.59375 C 117.953125 -138.59375 110.332031 -135.300781 103.9375 -128.71875 C 97.550781 -122.132812 94.359375 -113.632812 94.359375 -103.21875 C 94.359375 -92.988281 97.550781 -84.53125 103.9375 -77.84375 C 110.332031 -71.164062 117.953125 -67.828125 126.796875 -67.828125 C 135.648438 -67.828125 143.269531 -71.164062 149.65625 -77.84375 C 156.039062 -84.53125 159.234375 -92.988281 159.234375 -103.21875 Z M 241.8125 -103.21875 C 241.8125 -88.070312 239.007812 -73.960938 233.40625 -60.890625 C 227.800781 -47.816406 219.882812 -36.414062 209.65625 -26.6875 C 199.4375 -16.957031 187.296875 -9.335938 173.234375 -3.828125 C 159.179688 1.671875 143.703125 4.421875 126.796875 4.421875 C 109.890625 4.421875 94.40625 1.671875 80.34375 -3.828125 C 66.289062 -9.335938 54.15625 -16.957031 43.9375 -26.6875 C 33.71875 -36.414062 25.804688 -47.816406 20.203125 -60.890625 C 14.597656 -73.960938 11.796875 -88.070312 11.796875 -103.21875 C 11.796875 -118.351562 14.597656 -132.457031 20.203125 -145.53125 C 25.804688 -158.601562 33.71875 -170.003906 43.9375 -179.734375 C 54.15625 -189.460938 66.289062 -197.078125 80.34375 -202.578125 C 94.40625 -208.085938 109.890625 -210.84375 126.796875 -210.84375 C 143.703125 -210.84375 159.179688 -208.085938 173.234375 -202.578125 C 187.296875 -197.078125 199.4375 -189.460938 209.65625 -179.734375 C 219.882812 -170.003906 227.800781 -158.601562 233.40625 -145.53125 C 239.007812 -132.457031 241.8125 -118.351562 241.8125 -103.21875 Z M 241.8125 -103.21875 "/></g></g></g><g fill="#3c57e7" fill-opacity="1"><g transform="translate(2490.257321, 1483.374869)"><g><path d="M 94.359375 -61.921875 L 106.15625 -61.921875 C 117.164062 -61.921875 125.816406 -65.3125 132.109375 -72.09375 C 138.398438 -78.882812 141.546875 -89.257812 141.546875 -103.21875 C 141.546875 -117.175781 138.398438 -127.546875 132.109375 -134.328125 C 125.816406 -141.109375 117.164062 -144.5 106.15625 -144.5 L 94.359375 -144.5 Z M 224.109375 -103.21875 C 224.109375 -81.976562 219.734375 -63.394531 210.984375 -47.46875 C 202.242188 -31.550781 189.125 -19.164062 171.625 -10.3125 C 154.125 -1.46875 132.300781 2.953125 106.15625 2.953125 C 90.425781 2.953125 75.828125 2.703125 62.359375 2.203125 C 48.898438 1.710938 38.085938 1.222656 29.921875 0.734375 C 21.765625 0.242188 17.6875 0 17.6875 0 L 17.6875 -206.421875 C 17.6875 -206.421875 21.765625 -206.664062 29.921875 -207.15625 C 38.085938 -207.644531 48.898438 -208.132812 62.359375 -208.625 C 75.828125 -209.125 90.425781 -209.375 106.15625 -209.375 C 132.300781 -209.375 154.125 -204.945312 171.625 -196.09375 C 189.125 -187.25 202.242188 -174.863281 210.984375 -158.9375 C 219.734375 -143.019531 224.109375 -124.445312 224.109375 -103.21875 Z M 224.109375 -103.21875 "/></g></g></g><g fill="#3c57e7" fill-opacity="1"><g transform="translate(2726.163975, 1483.374869)"><g><path d="M 117.953125 -69.296875 C 124.640625 -69.296875 130.242188 -71.703125 134.765625 -76.515625 C 139.285156 -81.335938 141.546875 -87.78125 141.546875 -95.84375 L 141.546875 -206.421875 L 218.21875 -206.421875 L 218.21875 -95.84375 C 218.21875 -76.175781 213.941406 -58.820312 205.390625 -43.78125 C 196.835938 -28.75 185.039062 -16.957031 170 -8.40625 C 154.96875 0.144531 137.617188 4.421875 117.953125 4.421875 C 98.296875 4.421875 80.945312 0.144531 65.90625 -8.40625 C 50.863281 -16.957031 39.066406 -28.75 30.515625 -43.78125 C 21.960938 -58.820312 17.6875 -76.175781 17.6875 -95.84375 L 17.6875 -206.421875 L 94.359375 -206.421875 L 94.359375 -95.84375 C 94.359375 -87.78125 96.617188 -81.335938 101.140625 -76.515625 C 105.671875 -71.703125 111.273438 -69.296875 117.953125 -69.296875 Z M 117.953125 -69.296875 "/></g></g></g><g fill="#3c57e7" fill-opacity="1"><g transform="translate(2962.07063, 1483.374869)"><g><path d="M 11.796875 -103.21875 C 11.796875 -118.351562 14.546875 -132.457031 20.046875 -145.53125 C 25.554688 -158.601562 33.273438 -170.003906 43.203125 -179.734375 C 53.128906 -189.460938 64.675781 -197.078125 77.84375 -202.578125 C 91.019531 -208.085938 105.375 -210.84375 120.90625 -210.84375 C 134.863281 -210.84375 147.050781 -209.21875 157.46875 -205.96875 C 167.882812 -202.726562 176.484375 -198.945312 183.265625 -194.625 C 190.054688 -190.300781 195.117188 -186.515625 198.453125 -183.265625 C 201.796875 -180.023438 203.46875 -178.40625 203.46875 -178.40625 L 168.09375 -122.375 C 168.09375 -122.375 166.320312 -123.75 162.78125 -126.5 C 159.238281 -129.257812 154.566406 -131.960938 148.765625 -134.609375 C 142.972656 -137.265625 136.632812 -138.59375 129.75 -138.59375 C 119.53125 -138.59375 111.078125 -135.300781 104.390625 -128.71875 C 97.703125 -122.132812 94.359375 -113.632812 94.359375 -103.21875 C 94.359375 -92.988281 97.703125 -84.53125 104.390625 -77.84375 C 111.078125 -71.164062 119.53125 -67.828125 129.75 -67.828125 C 136.632812 -67.828125 142.972656 -69.203125 148.765625 -71.953125 C 154.566406 -74.703125 159.238281 -77.40625 162.78125 -80.0625 C 166.320312 -82.71875 168.09375 -84.046875 168.09375 -84.046875 L 203.46875 -28.015625 C 203.46875 -28.015625 201.796875 -26.390625 198.453125 -23.140625 C 195.117188 -19.898438 190.054688 -16.117188 183.265625 -11.796875 C 176.484375 -7.472656 167.882812 -3.6875 157.46875 -0.4375 C 147.050781 2.800781 134.863281 4.421875 120.90625 4.421875 C 105.375 4.421875 91.019531 1.671875 77.84375 -3.828125 C 64.675781 -9.335938 53.128906 -16.957031 43.203125 -26.6875 C 33.273438 -36.414062 25.554688 -47.816406 20.046875 -60.890625 C 14.546875 -73.960938 11.796875 -88.070312 11.796875 -103.21875 Z M 11.796875 -103.21875 "/></g></g></g><g fill="#3c57e7" fill-opacity="1"><g transform="translate(3171.437689, 1483.374869)"><g><path d="M 5.890625 -206.421875 L 194.625 -206.421875 L 194.625 -138.59375 L 138.59375 -138.59375 L 138.59375 0 L 61.921875 0 L 61.921875 -138.59375 L 5.890625 -138.59375 Z M 5.890625 -206.421875 "/></g></g></g><g fill="#3c57e7" fill-opacity="1"><g transform="translate(1675.637132, 1733.778252)"><g><path d="M 191.671875 0 L 129.75 0 L 94.359375 -115 L 94.359375 0 L 17.6875 0 L 17.6875 -206.421875 L 126.796875 -206.421875 L 160.71875 -94.359375 L 194.625 -206.421875 L 303.734375 -206.421875 L 303.734375 0 L 227.0625 0 L 227.0625 -115 Z M 191.671875 0 "/></g></g></g><g fill="#3c57e7" fill-opacity="1"><g transform="translate(1997.059863, 1733.778252)"><g><path d="M 163.671875 -206.421875 C 163.671875 -206.222656 164.550781 -203.175781 166.3125 -197.28125 C 168.082031 -191.382812 170.394531 -183.519531 173.25 -173.6875 C 176.101562 -163.863281 179.296875 -152.851562 182.828125 -140.65625 C 186.367188 -128.46875 190.054688 -115.835938 193.890625 -102.765625 C 197.722656 -89.691406 201.457031 -77.0625 205.09375 -64.875 C 208.726562 -52.6875 211.972656 -41.726562 214.828125 -32 C 217.679688 -22.269531 219.941406 -14.503906 221.609375 -8.703125 C 223.273438 -2.898438 224.109375 0 224.109375 0 L 138.59375 0 L 132.703125 -29.484375 L 94.359375 -29.484375 L 88.46875 0 L 2.953125 0 L 63.40625 -206.421875 Z M 103.21875 -76.671875 L 123.859375 -76.671875 L 113.53125 -129.75 Z M 103.21875 -76.671875 "/></g></g></g><g fill="#3c57e7" fill-opacity="1"><g transform="translate(2224.119991, 1733.778252)"><g><path d="M 144.5 0 L 94.359375 -91.421875 L 94.359375 0 L 17.6875 0 L 17.6875 -206.421875 L 103.21875 -206.421875 L 153.34375 -115 L 153.34375 -206.421875 L 230.015625 -206.421875 L 230.015625 0 Z M 144.5 0 "/></g></g></g><g fill="#3c57e7" fill-opacity="1"><g transform="translate(2471.821874, 1733.778252)"><g><path d="M 163.671875 -206.421875 C 163.671875 -206.222656 164.550781 -203.175781 166.3125 -197.28125 C 168.082031 -191.382812 170.394531 -183.519531 173.25 -173.6875 C 176.101562 -163.863281 179.296875 -152.851562 182.828125 -140.65625 C 186.367188 -128.46875 190.054688 -115.835938 193.890625 -102.765625 C 197.722656 -89.691406 201.457031 -77.0625 205.09375 -64.875 C 208.726562 -52.6875 211.972656 -41.726562 214.828125 -32 C 217.679688 -22.269531 219.941406 -14.503906 221.609375 -8.703125 C 223.273438 -2.898438 224.109375 0 224.109375 0 L 138.59375 0 L 132.703125 -29.484375 L 94.359375 -29.484375 L 88.46875 0 L 2.953125 0 L 63.40625 -206.421875 Z M 103.21875 -76.671875 L 123.859375 -76.671875 L 113.53125 -129.75 Z M 103.21875 -76.671875 "/></g></g></g><g fill="#3c57e7" fill-opacity="1"><g transform="translate(2698.882002, 1733.778252)"><g><path d="M 129.75 -67.828125 C 131.320312 -67.828125 132.695312 -67.828125 133.875 -67.828125 C 135.0625 -67.828125 135.65625 -67.828125 135.65625 -67.828125 L 135.65625 -103.21875 L 206.421875 -103.21875 L 206.421875 -30.96875 C 206.421875 -30.96875 204.75 -29.195312 201.40625 -25.65625 C 198.0625 -22.113281 192.851562 -17.984375 185.78125 -13.265625 C 178.707031 -8.546875 169.8125 -4.414062 159.09375 -0.875 C 148.375 2.65625 135.644531 4.421875 120.90625 4.421875 C 105.375 4.421875 91.019531 1.671875 77.84375 -3.828125 C 64.675781 -9.335938 53.128906 -16.957031 43.203125 -26.6875 C 33.273438 -36.414062 25.554688 -47.816406 20.046875 -60.890625 C 14.546875 -73.960938 11.796875 -88.070312 11.796875 -103.21875 C 11.796875 -118.351562 14.546875 -132.457031 20.046875 -145.53125 C 25.554688 -158.601562 33.273438 -170.003906 43.203125 -179.734375 C 53.128906 -189.460938 64.675781 -197.078125 77.84375 -202.578125 C 91.019531 -208.085938 105.375 -210.84375 120.90625 -210.84375 C 134.863281 -210.84375 147.050781 -209.21875 157.46875 -205.96875 C 167.882812 -202.726562 176.484375 -198.945312 183.265625 -194.625 C 190.054688 -190.300781 195.117188 -186.515625 198.453125 -183.265625 C 201.796875 -180.023438 203.46875 -178.40625 203.46875 -178.40625 L 168.09375 -122.375 C 168.09375 -122.375 166.320312 -123.75 162.78125 -126.5 C 159.238281 -129.257812 154.566406 -131.960938 148.765625 -134.609375 C 142.972656 -137.265625 136.632812 -138.59375 129.75 -138.59375 C 119.53125 -138.59375 111.078125 -135.300781 104.390625 -128.71875 C 97.703125 -122.132812 94.359375 -113.632812 94.359375 -103.21875 C 94.359375 -92.988281 97.703125 -84.53125 104.390625 -77.84375 C 111.078125 -71.164062 119.53125 -67.828125 129.75 -67.828125 Z M 129.75 -67.828125 "/></g></g></g><g fill="#3c57e7" fill-opacity="1"><g transform="translate(2917.095595, 1733.778252)"><g><path d="M 94.359375 -73.71875 L 94.359375 -58.984375 L 182.828125 -58.984375 L 182.828125 0 L 17.6875 0 L 17.6875 -206.421875 L 176.9375 -206.421875 L 176.9375 -147.453125 L 94.359375 -147.453125 L 94.359375 -132.703125 L 171.03125 -132.703125 L 171.03125 -73.71875 Z M 94.359375 -73.71875 "/></g></g></g><g fill="#3c57e7" fill-opacity="1"><g transform="translate(3108.769684, 1733.778252)"><g><path d="M 221.171875 0 L 132.703125 0 L 97.3125 -67.828125 L 94.359375 -67.828125 L 94.359375 0 L 17.6875 0 L 17.6875 -206.421875 C 17.6875 -206.421875 20.046875 -206.566406 24.765625 -206.859375 C 29.484375 -207.160156 35.875 -207.503906 43.9375 -207.890625 C 52 -208.285156 61.140625 -208.628906 71.359375 -208.921875 C 81.585938 -209.222656 92.207031 -209.375 103.21875 -209.375 C 124.84375 -209.375 142.632812 -206.328125 156.59375 -200.234375 C 170.550781 -194.140625 180.867188 -185.6875 187.546875 -174.875 C 194.234375 -164.0625 197.578125 -151.476562 197.578125 -137.125 C 197.578125 -126.507812 196.25 -117.515625 193.59375 -110.140625 C 190.9375 -102.765625 187.835938 -96.816406 184.296875 -92.296875 C 180.765625 -87.773438 177.671875 -84.53125 175.015625 -82.5625 C 172.359375 -80.601562 171.03125 -79.625 171.03125 -79.625 Z M 94.359375 -120.90625 L 103.21875 -120.90625 C 108.320312 -120.90625 112.546875 -122.523438 115.890625 -125.765625 C 119.234375 -129.015625 120.90625 -132.800781 120.90625 -137.125 C 120.90625 -141.644531 119.234375 -145.476562 115.890625 -148.625 C 112.546875 -151.769531 108.320312 -153.34375 103.21875 -153.34375 L 94.359375 -153.34375 Z M 94.359375 -120.90625 "/></g></g></g><g fill="#3c57e7" fill-opacity="1"><g transform="translate(3324.034493, 1733.778252)"><g><path d="M 81.09375 -56.03125 C 84.832031 -56.03125 87.734375 -56.960938 89.796875 -58.828125 C 91.859375 -60.691406 92.890625 -62.707031 92.890625 -64.875 C 92.890625 -67.425781 90.972656 -69.632812 87.140625 -71.5 C 83.304688 -73.375 78.390625 -75.441406 72.390625 -77.703125 C 66.398438 -79.960938 60.007812 -82.710938 53.21875 -85.953125 C 46.4375 -89.203125 40 -93.332031 33.90625 -98.34375 C 27.8125 -103.351562 22.847656 -109.59375 19.015625 -117.0625 C 15.179688 -124.539062 13.265625 -133.6875 13.265625 -144.5 C 13.265625 -155.894531 16.703125 -166.601562 23.578125 -176.625 C 30.460938 -186.65625 40.195312 -194.863281 52.78125 -201.25 C 65.363281 -207.644531 80.207031 -210.84375 97.3125 -210.84375 C 110.675781 -210.84375 122.320312 -209.21875 132.25 -205.96875 C 142.1875 -202.726562 150.445312 -198.945312 157.03125 -194.625 C 163.613281 -190.300781 168.578125 -186.515625 171.921875 -183.265625 C 175.265625 -180.023438 176.9375 -178.40625 176.9375 -178.40625 L 148.921875 -134.171875 C 148.921875 -134.171875 147.148438 -135.546875 143.609375 -138.296875 C 140.066406 -141.054688 135.394531 -143.757812 129.59375 -146.40625 C 123.800781 -149.0625 117.460938 -150.390625 110.578125 -150.390625 C 106.847656 -150.390625 103.945312 -149.457031 101.875 -147.59375 C 99.8125 -145.726562 98.78125 -143.710938 98.78125 -141.546875 C 98.78125 -139.191406 100.695312 -137.03125 104.53125 -135.0625 C 108.375 -133.09375 113.34375 -130.976562 119.4375 -128.71875 C 125.53125 -126.457031 131.96875 -123.703125 138.75 -120.453125 C 145.53125 -117.210938 151.914062 -113.085938 157.90625 -108.078125 C 163.90625 -103.066406 168.820312 -96.820312 172.65625 -89.34375 C 176.488281 -81.875 178.40625 -72.734375 178.40625 -61.921875 C 178.40625 -50.722656 174.960938 -40.0625 168.078125 -29.9375 C 161.203125 -19.8125 151.519531 -11.550781 139.03125 -5.15625 C 126.550781 1.226562 111.660156 4.421875 94.359375 4.421875 C 78.242188 4.421875 64.382812 2.65625 52.78125 -0.875 C 41.1875 -4.414062 31.703125 -8.546875 24.328125 -13.265625 C 16.953125 -17.984375 11.546875 -22.113281 8.109375 -25.65625 C 4.671875 -29.195312 2.953125 -30.96875 2.953125 -30.96875 L 30.96875 -75.203125 C 30.96875 -75.203125 32.191406 -74.21875 34.640625 -72.25 C 37.097656 -70.28125 40.539062 -68.066406 44.96875 -65.609375 C 49.394531 -63.148438 54.703125 -60.9375 60.890625 -58.96875 C 67.085938 -57.007812 73.820312 -56.03125 81.09375 -56.03125 Z M 81.09375 -56.03125 "/></g></g></g><path fill="#ea5080" d="M 1413.707031 834.589844 C 1426.722656 834.589844 1439.175781 823.152344 1438.578125 809.722656 C 1437.980469 796.242188 1427.652344 784.855469 1413.707031 784.855469 C 1400.691406 784.855469 1388.238281 796.292969 1388.835938 809.722656 C 1389.433594 823.199219 1399.761719 834.589844 1413.707031 834.589844 Z M 1413.707031 834.589844 " fill-opacity="1" fill-rule="nonzero"/><path fill="#ea5080" d="M 1417.121094 844.851562 C 1430.140625 844.851562 1442.589844 833.414062 1441.996094 819.984375 C 1441.398438 806.507812 1431.066406 795.117188 1417.121094 795.117188 C 1404.105469 795.117188 1391.65625 806.554688 1392.25 819.984375 C 1392.863281 833.460938 1403.179688 844.851562 1417.121094 844.851562 Z M 1417.121094 844.851562 " fill-opacity="1" fill-rule="nonzero"/><path fill="#ea5080" d="M 1442.890625 645.679688 C 1451.511719 670.199219 1458.242188 695.316406 1462.917969 720.878906 C 1465.222656 733.429688 1466.617188 743.160156 1467.84375 755.542969 C 1469.253906 769.800781 1469.136719 785.816406 1479.683594 796.90625 C 1490.792969 808.609375 1505.234375 807.914062 1520.125 807.898438 C 1528.695312 807.882812 1536.820312 807.25 1544.296875 802.644531 C 1552.753906 797.4375 1557.679688 788.070312 1558.957031 778.472656 C 1560.730469 765.308594 1558.324219 751.433594 1557.398438 738.238281 C 1556.386719 724.0625 1555.375 709.886719 1554.363281 695.714844 C 1552.109375 664.097656 1549.851562 632.484375 1547.597656 600.867188 C 1546.570312 586.378906 1532.292969 570.5625 1516.109375 576.898438 C 1495.699219 584.871094 1475.554688 593.523438 1455.738281 602.90625 C 1443.070312 608.910156 1441.214844 625.785156 1446.820312 636.925781 C 1456.734375 656.65625 1464.015625 676.367188 1469.898438 698.914062 C 1476 722.304688 1478.96875 742.25 1480.214844 765.691406 C 1480.875 778.125 1489.183594 788.417969 1501.785156 790.109375 C 1513.160156 791.636719 1526.753906 784.488281 1529.078125 772.304688 C 1533.503906 749.046875 1538.261719 724.957031 1536.207031 701.183594 C 1535.179688 689.246094 1532.675781 677.859375 1529.523438 666.335938 C 1526.492188 655.195312 1524.667969 648.960938 1525.695312 638.1875 C 1526.9375 625.207031 1513.359375 612.753906 1500.824219 613.320312 C 1486.28125 613.964844 1477.277344 624.277344 1475.953125 638.1875 C 1473.878906 659.722656 1483.859375 679.582031 1486.363281 699.792969 C 1488.800781 719.46875 1484.839844 739.464844 1481.109375 759.074219 C 1497.390625 761.28125 1513.671875 763.484375 1529.957031 765.691406 C 1527.105469 712.042969 1513.90625 659.886719 1489.78125 611.84375 C 1486.8125 623.183594 1483.828125 634.523438 1480.859375 645.863281 C 1497.175781 638.121094 1512.8125 631.324219 1529.34375 624.859375 C 1518.847656 616.867188 1508.351562 608.875 1497.855469 600.886719 C 1499.960938 630.328125 1502.050781 659.753906 1504.15625 689.199219 C 1505.25 704.464844 1506.328125 719.71875 1507.421875 734.988281 C 1507.96875 742.613281 1508.515625 750.253906 1509.0625 757.882812 C 1509.296875 761.148438 1509.609375 764.414062 1509.761719 767.695312 C 1509.894531 769.371094 1509.941406 771.042969 1509.894531 772.71875 C 1526.9375 762.671875 1531.347656 757.816406 1523.109375 758.179688 C 1519.757812 757.75 1516.042969 758.195312 1512.660156 758.195312 C 1511.167969 758.195312 1509.675781 758.195312 1508.183594 758.195312 C 1505.996094 758.082031 1506.195312 758.246094 1508.75 758.726562 C 1513.589844 760.1875 1516.941406 762.972656 1518.796875 767.082031 C 1518.316406 764.546875 1518.199219 764.179688 1518.449219 765.972656 C 1518.664062 767.761719 1518.648438 767.382812 1518.382812 764.8125 C 1518.214844 762.753906 1518.035156 760.699219 1517.851562 758.644531 C 1516.457031 743.625 1514.46875 728.621094 1511.933594 713.75 C 1507.222656 686.097656 1500.125 658.941406 1490.824219 632.484375 C 1486.363281 619.816406 1473.828125 611.378906 1460.234375 615.109375 C 1447.964844 618.457031 1438.414062 632.949219 1442.890625 645.679688 Z M 1442.890625 645.679688 " fill-opacity="1" fill-rule="nonzero"/><path fill="#ea5080" d="M 1336.074219 778.15625 C 1343.472656 768.589844 1351.59375 759.65625 1360.617188 751.582031 C 1364.546875 748.066406 1367.910156 745.234375 1370.746094 743.210938 C 1373.019531 741.585938 1375.289062 739.976562 1377.609375 738.433594 C 1379.152344 737.40625 1380.726562 736.414062 1382.304688 735.417969 C 1386.613281 733.097656 1385.335938 733.164062 1378.507812 735.632812 C 1374.328125 734.507812 1370.132812 733.363281 1365.953125 732.234375 C 1361.875 727.675781 1360.699219 726.929688 1362.421875 729.964844 C 1363.136719 731.4375 1363.867188 732.914062 1364.578125 734.40625 C 1366.019531 737.359375 1367.445312 740.324219 1368.890625 743.277344 C 1371.277344 748.199219 1373.664062 753.140625 1376.050781 758.082031 C 1381.308594 768.941406 1386.53125 779.796875 1391.769531 790.671875 C 1396.644531 800.804688 1401.519531 810.933594 1406.394531 821.0625 C 1409.03125 826.550781 1411.683594 832.054688 1414.320312 837.539062 C 1416.824219 842.746094 1416.277344 847.636719 1418.199219 835.386719 C 1420.273438 822.105469 1418.316406 829.070312 1414.601562 833.84375 C 1413.308594 835.519531 1411.152344 837.339844 1410.308594 839.28125 C 1406.476562 842.695312 1408.914062 842.777344 1417.621094 839.511719 C 1427.023438 840.058594 1429.128906 839.015625 1423.9375 836.398438 C 1420.703125 832.648438 1414.222656 829.632812 1410.257812 826.664062 C 1402.980469 821.210938 1394.359375 813.933594 1386.828125 807.433594 C 1378.339844 800.089844 1370 792.546875 1361.644531 785.035156 C 1357.316406 781.140625 1353.003906 777.246094 1348.675781 773.347656 C 1346.324219 771.226562 1343.953125 769.121094 1341.597656 766.984375 C 1340.816406 766.269531 1340.023438 765.574219 1339.242188 764.859375 C 1336.972656 762.839844 1336.773438 762.539062 1338.664062 763.984375 C 1339.789062 768.160156 1340.933594 772.355469 1342.0625 776.53125 C 1332.144531 789 1330.355469 792.910156 1336.707031 788.304688 C 1337.5 787.820312 1338.3125 787.339844 1339.109375 786.859375 C 1341.945312 785.234375 1343.421875 784.488281 1344.582031 784.027344 C 1350.234375 781.789062 1356.238281 780.527344 1362.242188 779.683594 C 1352.871094 775.871094 1343.519531 772.054688 1334.152344 768.261719 C 1343.421875 787.308594 1356.371094 804.683594 1371.808594 819.1875 C 1381.589844 828.390625 1397.277344 828.886719 1406.976562 819.1875 C 1416.277344 809.886719 1416.792969 793.261719 1406.976562 784.027344 C 1393.5625 771.410156 1385.4375 760.335938 1377.097656 743.160156 C 1371.855469 732.382812 1359.453125 730.246094 1349.007812 731.738281 C 1332.660156 734.058594 1312.847656 741.023438 1301.15625 753.273438 C 1291.722656 763.1875 1289.382812 778.125 1296.230469 790.175781 C 1301.171875 798.878906 1309.710938 805.128906 1317.023438 811.710938 C 1330.023438 823.433594 1342.957031 835.253906 1356.269531 846.59375 C 1370.464844 858.679688 1385.238281 871.542969 1401.339844 881.042969 C 1411.984375 887.324219 1424.1875 888.667969 1435.328125 882.582031 C 1443.683594 878.023438 1448.875 870.148438 1454.5625 862.839844 C 1462.4375 852.710938 1468.574219 842.664062 1464.84375 829.269531 C 1462.191406 819.71875 1456.21875 810.285156 1451.910156 801.332031 C 1444.265625 785.46875 1436.636719 769.585938 1428.996094 753.71875 C 1420.96875 737.074219 1413.875 719.386719 1404.621094 703.390625 C 1396.859375 689.960938 1383 682.667969 1367.53125 687.40625 C 1358.757812 690.09375 1350.667969 696.492188 1343.386719 701.898438 C 1327.402344 713.785156 1313.09375 727.179688 1300.890625 742.960938 C 1292.683594 753.570312 1290.542969 767.777344 1300.890625 778.125 C 1309.464844 786.710938 1327.800781 788.851562 1336.074219 778.15625 Z M 1336.074219 778.15625 " fill-opacity="1" fill-rule="nonzero"/><path fill="#ea5080" d="M 1277.347656 881.886719 C 1268.261719 900.4375 1243.039062 955.429688 1280.628906 957.136719 C 1297.675781 957.898438 1314.933594 957.136719 1331.996094 957.136719 C 1345.328125 957.136719 1360.898438 958.214844 1369.75 946.179688 C 1390.542969 917.929688 1347.515625 891.289062 1329.808594 876.152344 C 1318.949219 866.882812 1306.644531 855.378906 1291.605469 863.964844 C 1280.066406 870.546875 1270.25 886.859375 1267 899.394531 C 1262.90625 915.210938 1269.269531 931.488281 1284.707031 937.871094 C 1291.15625 940.542969 1297.957031 941.023438 1304.820312 941.917969 C 1314.140625 943.144531 1323.125 945.761719 1331.847656 949.210938 C 1338.246094 951.75 1345.328125 946.394531 1347.152344 940.523438 C 1352.953125 921.808594 1340.949219 905.660156 1325.84375 895.980469 C 1312.828125 887.625 1294.027344 880.097656 1283.628906 896.308594 C 1280.910156 900.554688 1281.476562 908.03125 1285.570312 911.378906 C 1296.664062 920.449219 1308.652344 934.273438 1324.070312 933.859375 C 1340.039062 933.429688 1340.105469 908.5625 1324.070312 908.992188 C 1320.457031 909.09375 1316.941406 905.0625 1314.304688 902.910156 C 1310.589844 899.875 1306.875 896.824219 1303.164062 893.789062 C 1303.808594 898.8125 1304.457031 903.835938 1305.101562 908.859375 C 1302.78125 912.472656 1301.039062 910.683594 1305.484375 912.871094 C 1308.882812 914.546875 1312.382812 916.667969 1315.414062 918.890625 C 1320.421875 922.539062 1325.164062 927.410156 1323.144531 933.941406 C 1328.25 931.042969 1333.339844 928.15625 1338.445312 925.257812 C 1326.261719 920.433594 1314.1875 918.589844 1301.339844 916.667969 C 1291.820312 915.242188 1288.171875 911.597656 1292.386719 902.046875 C 1294.492188 897.253906 1297.808594 891.703125 1301.421875 887.824219 C 1304.605469 884.40625 1303.910156 886.859375 1301.984375 885.484375 C 1303.859375 886.828125 1305.582031 888.105469 1307.339844 889.613281 C 1317.871094 898.597656 1328.433594 907.515625 1338.894531 916.570312 C 1342.394531 919.601562 1347.597656 923.066406 1349.324219 927.527344 C 1350.816406 931.375 1350.167969 931.488281 1346.804688 932.152344 C 1341.230469 933.261719 1334.433594 932.300781 1328.761719 932.300781 C 1322.347656 932.300781 1315.929688 932.300781 1309.496094 932.300781 C 1302.550781 932.300781 1295.585938 932.300781 1288.636719 932.300781 C 1287.03125 932.300781 1285.421875 932.300781 1283.828125 932.300781 C 1278.753906 931.523438 1279.203125 933.113281 1285.171875 937.078125 C 1286.050781 936.5625 1286.433594 930.410156 1286.632812 929.5 C 1289.300781 917.347656 1293.347656 905.644531 1298.800781 894.46875 C 1305.832031 880.113281 1284.375 867.496094 1277.347656 881.886719 Z M 1277.347656 881.886719 " fill-opacity="1" fill-rule="nonzero"/><path fill="#ea5080" d="M 1346.457031 936.613281 C 1362.457031 936.613281 1362.488281 911.746094 1346.457031 911.746094 C 1330.453125 911.746094 1330.421875 936.613281 1346.457031 936.613281 Z M 1346.457031 936.613281 " fill-opacity="1" fill-rule="nonzero"/><path fill="#ea5080" d="M 1346.457031 936.613281 C 1362.457031 936.613281 1362.488281 911.746094 1346.457031 911.746094 C 1330.453125 911.746094 1330.421875 936.613281 1346.457031 936.613281 Z M 1346.457031 936.613281 " fill-opacity="1" fill-rule="nonzero"/><path fill="#ea5080" d="M 1343.472656 915.640625 C 1343.6875 912.144531 1342.625 908.5625 1341.015625 905.496094 C 1339.375 902.363281 1336.820312 900.023438 1333.921875 898.101562 C 1331.316406 896.375 1327.269531 896.046875 1324.335938 896.839844 C 1321.453125 897.636719 1318.316406 899.859375 1316.910156 902.558594 C 1315.382812 905.445312 1314.621094 908.941406 1315.648438 912.144531 C 1316.675781 915.324219 1318.566406 917.714844 1321.367188 919.570312 C 1321.601562 919.71875 1321.816406 919.867188 1322.015625 920.035156 C 1321.167969 919.386719 1320.339844 918.742188 1319.496094 918.09375 C 1319.910156 918.441406 1320.273438 918.808594 1320.621094 919.222656 C 1319.976562 918.375 1319.328125 917.546875 1318.683594 916.703125 C 1319.097656 917.25 1319.429688 917.796875 1319.710938 918.410156 C 1319.296875 917.414062 1318.882812 916.4375 1318.449219 915.441406 C 1318.699219 916.070312 1318.882812 916.683594 1318.996094 917.363281 C 1318.847656 916.269531 1318.699219 915.160156 1318.550781 914.066406 C 1318.617188 914.597656 1318.632812 915.125 1318.597656 915.65625 C 1318.417969 918.722656 1320.125 922.320312 1322.246094 924.445312 C 1324.402344 926.597656 1327.949219 928.222656 1331.035156 928.089844 C 1334.25 927.941406 1337.585938 926.898438 1339.824219 924.445312 C 1342.144531 921.90625 1343.273438 919.054688 1343.472656 915.640625 Z M 1343.472656 915.640625 " fill-opacity="1" fill-rule="nonzero"/><path fill="#ea5080" d="M 1322.527344 917.8125 C 1338.53125 917.8125 1338.5625 892.945312 1322.527344 892.945312 C 1306.527344 892.945312 1306.496094 917.8125 1322.527344 917.8125 Z M 1322.527344 917.8125 " fill-opacity="1" fill-rule="nonzero"/><g fill="#ea5080" fill-opacity="1"><g transform="translate(2402.449128, 1258.96157)"><g><path d="M 107.953125 -69.96875 C 107.953125 -77.03125 105.785156 -82.796875 101.453125 -87.265625 C 97.128906 -91.734375 91.96875 -93.96875 85.96875 -93.96875 C 79.96875 -93.96875 74.800781 -91.734375 70.46875 -87.265625 C 66.132812 -82.796875 63.96875 -77.03125 63.96875 -69.96875 C 63.96875 -63.039062 66.132812 -57.3125 70.46875 -52.78125 C 74.800781 -48.25 79.96875 -45.984375 85.96875 -45.984375 C 91.96875 -45.984375 97.128906 -48.25 101.453125 -52.78125 C 105.785156 -57.3125 107.953125 -63.039062 107.953125 -69.96875 Z M 163.9375 -69.96875 C 163.9375 -59.707031 162.035156 -50.144531 158.234375 -41.28125 C 154.441406 -32.414062 149.078125 -24.6875 142.140625 -18.09375 C 135.210938 -11.5 126.984375 -6.332031 117.453125 -2.59375 C 107.921875 1.132812 97.425781 3 85.96875 3 C 74.5 3 64 1.132812 54.46875 -2.59375 C 44.945312 -6.332031 36.71875 -11.5 29.78125 -18.09375 C 22.851562 -24.6875 17.488281 -32.414062 13.6875 -41.28125 C 9.894531 -50.144531 8 -59.707031 8 -69.96875 C 8 -80.226562 9.894531 -89.789062 13.6875 -98.65625 C 17.488281 -107.519531 22.851562 -115.25 29.78125 -121.84375 C 36.71875 -128.445312 44.945312 -133.613281 54.46875 -137.34375 C 64 -141.070312 74.5 -142.9375 85.96875 -142.9375 C 97.425781 -142.9375 107.921875 -141.070312 117.453125 -137.34375 C 126.984375 -133.613281 135.210938 -128.445312 142.140625 -121.84375 C 149.078125 -115.25 154.441406 -107.519531 158.234375 -98.65625 C 162.035156 -89.789062 163.9375 -80.226562 163.9375 -69.96875 Z M 163.9375 -69.96875 "/></g></g></g><g fill="#ea5080" fill-opacity="1"><g transform="translate(2574.378183, 1258.96157)"><g><path d="M 12 -139.9375 L 115.953125 -139.9375 L 115.953125 -95.96875 L 63.96875 -95.96875 L 63.96875 -79.96875 L 105.953125 -79.96875 L 105.953125 -39.984375 L 63.96875 -39.984375 L 63.96875 0 L 12 0 Z M 12 -139.9375 "/></g></g></g><g fill="#000000" fill-opacity="1"><g transform="translate(1749.429544, 1862.304325)"><g><path d="M 27.265625 -59.625 L 27.265625 0 L 5.109375 0 L 5.109375 -59.625 Z M 27.265625 -59.625 "/></g></g></g><g fill="#000000" fill-opacity="1"><g transform="translate(1781.803219, 1862.304325)"><g><path d="M 41.734375 0 L 27.265625 -26.40625 L 27.265625 0 L 5.109375 0 L 5.109375 -59.625 L 29.8125 -59.625 L 44.296875 -33.21875 L 44.296875 -59.625 L 66.453125 -59.625 L 66.453125 0 Z M 41.734375 0 "/></g></g></g><g fill="#000000" fill-opacity="1"><g transform="translate(1853.366057, 1862.304325)"><g><path d="M 41.734375 0 L 27.265625 -26.40625 L 27.265625 0 L 5.109375 0 L 5.109375 -59.625 L 29.8125 -59.625 L 44.296875 -33.21875 L 44.296875 -59.625 L 66.453125 -59.625 L 66.453125 0 Z M 41.734375 0 "/></g></g></g><g fill="#000000" fill-opacity="1"><g transform="translate(1924.928907, 1862.304325)"><g><path d="M 46 -29.8125 C 46 -32.820312 45.078125 -35.273438 43.234375 -37.171875 C 41.390625 -39.078125 39.1875 -40.03125 36.625 -40.03125 C 34.070312 -40.03125 31.875 -39.078125 30.03125 -37.171875 C 28.1875 -35.273438 27.265625 -32.820312 27.265625 -29.8125 C 27.265625 -26.863281 28.1875 -24.421875 30.03125 -22.484375 C 31.875 -20.554688 34.070312 -19.59375 36.625 -19.59375 C 39.1875 -19.59375 41.390625 -20.554688 43.234375 -22.484375 C 45.078125 -24.421875 46 -26.863281 46 -29.8125 Z M 69.859375 -29.8125 C 69.859375 -25.4375 69.046875 -21.359375 67.421875 -17.578125 C 65.804688 -13.804688 63.519531 -10.515625 60.5625 -7.703125 C 57.613281 -4.898438 54.109375 -2.703125 50.046875 -1.109375 C 45.984375 0.484375 41.507812 1.28125 36.625 1.28125 C 31.738281 1.28125 27.265625 0.484375 23.203125 -1.109375 C 19.148438 -2.703125 15.644531 -4.898438 12.6875 -7.703125 C 9.738281 -10.515625 7.453125 -13.804688 5.828125 -17.578125 C 4.210938 -21.359375 3.40625 -25.4375 3.40625 -29.8125 C 3.40625 -34.1875 4.210938 -38.257812 5.828125 -42.03125 C 7.453125 -45.8125 9.738281 -49.109375 12.6875 -51.921875 C 15.644531 -54.734375 19.148438 -56.929688 23.203125 -58.515625 C 27.265625 -60.109375 31.738281 -60.90625 36.625 -60.90625 C 41.507812 -60.90625 45.984375 -60.109375 50.046875 -58.515625 C 54.109375 -56.929688 57.613281 -54.734375 60.5625 -51.921875 C 63.519531 -49.109375 65.804688 -45.8125 67.421875 -42.03125 C 69.046875 -38.257812 69.859375 -34.1875 69.859375 -29.8125 Z M 69.859375 -29.8125 "/></g></g></g><g fill="#000000" fill-opacity="1"><g transform="translate(1998.195637, 1862.304325)"><g><path d="M 0.859375 -59.625 L 25.5625 -59.625 L 31.9375 -24.703125 L 38.328125 -59.625 L 63.03125 -59.625 L 46.421875 0 L 17.46875 0 Z M 0.859375 -59.625 "/></g></g></g><g fill="#000000" fill-opacity="1"><g transform="translate(2062.091048, 1862.304325)"><g><path d="M 47.28125 -59.625 C 47.28125 -59.570312 47.535156 -58.691406 48.046875 -56.984375 C 48.554688 -55.285156 49.222656 -53.015625 50.046875 -50.171875 C 50.867188 -47.335938 51.789062 -44.160156 52.8125 -40.640625 C 53.832031 -37.117188 54.894531 -33.46875 56 -29.6875 C 57.113281 -25.90625 58.195312 -22.253906 59.25 -18.734375 C 60.300781 -15.210938 61.238281 -12.046875 62.0625 -9.234375 C 62.882812 -6.429688 63.535156 -4.191406 64.015625 -2.515625 C 64.503906 -0.835938 64.75 0 64.75 0 L 40.03125 0 L 38.328125 -8.515625 L 27.265625 -8.515625 L 25.5625 0 L 0.859375 0 L 18.3125 -59.625 Z M 29.8125 -22.15625 L 35.78125 -22.15625 L 32.796875 -37.484375 Z M 29.8125 -22.15625 "/></g></g></g><g fill="#000000" fill-opacity="1"><g transform="translate(2127.690339, 1862.304325)"><g><path d="M 1.703125 -59.625 L 56.21875 -59.625 L 56.21875 -40.03125 L 40.03125 -40.03125 L 40.03125 0 L 17.890625 0 L 17.890625 -40.03125 L 1.703125 -40.03125 Z M 1.703125 -59.625 "/></g></g></g><g fill="#000000" fill-opacity="1"><g transform="translate(2185.622167, 1862.304325)"><g><path d="M 27.265625 -21.296875 L 27.265625 -17.03125 L 52.8125 -17.03125 L 52.8125 0 L 5.109375 0 L 5.109375 -59.625 L 51.109375 -59.625 L 51.109375 -42.59375 L 27.265625 -42.59375 L 27.265625 -38.328125 L 49.40625 -38.328125 L 49.40625 -21.296875 Z M 27.265625 -21.296875 "/></g></g></g><g fill="#000000" fill-opacity="1"><g transform="translate(2240.998196, 1862.304325)"><g><path d="M 3.40625 -17.03125 L 21.296875 -17.03125 L 21.296875 0 L 3.40625 0 Z M 3.40625 -17.03125 "/></g></g></g><g fill="#000000" fill-opacity="1"><g transform="translate(2265.70442, 1862.304325)"><g/></g></g><g fill="#000000" fill-opacity="1"><g transform="translate(2282.743181, 1862.304325)"><g><path d="M 3.40625 -29.8125 C 3.40625 -34.1875 4.195312 -38.257812 5.78125 -42.03125 C 7.375 -45.8125 9.601562 -49.109375 12.46875 -51.921875 C 15.34375 -54.734375 18.679688 -56.929688 22.484375 -58.515625 C 26.296875 -60.109375 30.441406 -60.90625 34.921875 -60.90625 C 38.953125 -60.90625 42.472656 -60.4375 45.484375 -59.5 C 48.492188 -58.5625 50.976562 -57.46875 52.9375 -56.21875 C 54.90625 -54.96875 56.367188 -53.875 57.328125 -52.9375 C 58.296875 -52 58.78125 -51.53125 58.78125 -51.53125 L 48.5625 -35.359375 C 48.5625 -35.359375 48.046875 -35.753906 47.015625 -36.546875 C 45.992188 -37.335938 44.644531 -38.113281 42.96875 -38.875 C 41.300781 -39.644531 39.472656 -40.03125 37.484375 -40.03125 C 34.523438 -40.03125 32.082031 -39.078125 30.15625 -37.171875 C 28.226562 -35.273438 27.265625 -32.820312 27.265625 -29.8125 C 27.265625 -26.863281 28.226562 -24.421875 30.15625 -22.484375 C 32.082031 -20.554688 34.523438 -19.59375 37.484375 -19.59375 C 39.472656 -19.59375 41.300781 -19.988281 42.96875 -20.78125 C 44.644531 -21.582031 45.992188 -22.363281 47.015625 -23.125 C 48.046875 -23.894531 48.5625 -24.28125 48.5625 -24.28125 L 58.78125 -8.09375 C 58.78125 -8.09375 58.296875 -7.625 57.328125 -6.6875 C 56.367188 -5.75 54.90625 -4.65625 52.9375 -3.40625 C 50.976562 -2.15625 48.492188 -1.0625 45.484375 -0.125 C 42.472656 0.8125 38.953125 1.28125 34.921875 1.28125 C 30.441406 1.28125 26.296875 0.484375 22.484375 -1.109375 C 18.679688 -2.703125 15.34375 -4.898438 12.46875 -7.703125 C 9.601562 -10.515625 7.375 -13.804688 5.78125 -17.578125 C 4.195312 -21.359375 3.40625 -25.4375 3.40625 -29.8125 Z M 3.40625 -29.8125 "/></g></g></g><g fill="#000000" fill-opacity="1"><g transform="translate(2343.230853, 1862.304325)"><g><path d="M 46 -29.8125 C 46 -32.820312 45.078125 -35.273438 43.234375 -37.171875 C 41.390625 -39.078125 39.1875 -40.03125 36.625 -40.03125 C 34.070312 -40.03125 31.875 -39.078125 30.03125 -37.171875 C 28.1875 -35.273438 27.265625 -32.820312 27.265625 -29.8125 C 27.265625 -26.863281 28.1875 -24.421875 30.03125 -22.484375 C 31.875 -20.554688 34.070312 -19.59375 36.625 -19.59375 C 39.1875 -19.59375 41.390625 -20.554688 43.234375 -22.484375 C 45.078125 -24.421875 46 -26.863281 46 -29.8125 Z M 69.859375 -29.8125 C 69.859375 -25.4375 69.046875 -21.359375 67.421875 -17.578125 C 65.804688 -13.804688 63.519531 -10.515625 60.5625 -7.703125 C 57.613281 -4.898438 54.109375 -2.703125 50.046875 -1.109375 C 45.984375 0.484375 41.507812 1.28125 36.625 1.28125 C 31.738281 1.28125 27.265625 0.484375 23.203125 -1.109375 C 19.148438 -2.703125 15.644531 -4.898438 12.6875 -7.703125 C 9.738281 -10.515625 7.453125 -13.804688 5.828125 -17.578125 C 4.210938 -21.359375 3.40625 -25.4375 3.40625 -29.8125 C 3.40625 -34.1875 4.210938 -38.257812 5.828125 -42.03125 C 7.453125 -45.8125 9.738281 -49.109375 12.6875 -51.921875 C 15.644531 -54.734375 19.148438 -56.929688 23.203125 -58.515625 C 27.265625 -60.109375 31.738281 -60.90625 36.625 -60.90625 C 41.507812 -60.90625 45.984375 -60.109375 50.046875 -58.515625 C 54.109375 -56.929688 57.613281 -54.734375 60.5625 -51.921875 C 63.519531 -49.109375 65.804688 -45.8125 67.421875 -42.03125 C 69.046875 -38.257812 69.859375 -34.1875 69.859375 -29.8125 Z M 69.859375 -29.8125 "/></g></g></g><g fill="#000000" fill-opacity="1"><g transform="translate(2416.497584, 1862.304325)"><g><path d="M 27.265625 -59.625 L 27.265625 -19.59375 L 50.265625 -19.59375 L 50.265625 0 L 5.109375 0 L 5.109375 -59.625 Z M 27.265625 -59.625 "/></g></g></g><g fill="#000000" fill-opacity="1"><g transform="translate(2468.465852, 1862.304325)"><g><path d="M 27.265625 -59.625 L 27.265625 -19.59375 L 50.265625 -19.59375 L 50.265625 0 L 5.109375 0 L 5.109375 -59.625 Z M 27.265625 -59.625 "/></g></g></g><g fill="#000000" fill-opacity="1"><g transform="translate(2520.434121, 1862.304325)"><g><path d="M 47.28125 -59.625 C 47.28125 -59.570312 47.535156 -58.691406 48.046875 -56.984375 C 48.554688 -55.285156 49.222656 -53.015625 50.046875 -50.171875 C 50.867188 -47.335938 51.789062 -44.160156 52.8125 -40.640625 C 53.832031 -37.117188 54.894531 -33.46875 56 -29.6875 C 57.113281 -25.90625 58.195312 -22.253906 59.25 -18.734375 C 60.300781 -15.210938 61.238281 -12.046875 62.0625 -9.234375 C 62.882812 -6.429688 63.535156 -4.191406 64.015625 -2.515625 C 64.503906 -0.835938 64.75 0 64.75 0 L 40.03125 0 L 38.328125 -8.515625 L 27.265625 -8.515625 L 25.5625 0 L 0.859375 0 L 18.3125 -59.625 Z M 29.8125 -22.15625 L 35.78125 -22.15625 L 32.796875 -37.484375 Z M 29.8125 -22.15625 "/></g></g></g><g fill="#000000" fill-opacity="1"><g transform="translate(2586.03339, 1862.304325)"><g><path d="M 46 -31.515625 L 46 -31.09375 C 46 -31.09375 46.453125 -30.976562 47.359375 -30.75 C 48.273438 -30.519531 49.410156 -30.109375 50.765625 -29.515625 C 52.128906 -28.921875 53.492188 -28.066406 54.859375 -26.953125 C 56.222656 -25.847656 57.359375 -24.414062 58.265625 -22.65625 C 59.171875 -20.894531 59.625 -18.738281 59.625 -16.1875 C 59.625 -13.0625 58.6875 -10.207031 56.8125 -7.625 C 54.945312 -5.039062 51.894531 -2.976562 47.65625 -1.4375 C 43.425781 0.09375 37.765625 0.859375 30.671875 0.859375 C 26.128906 0.859375 21.910156 0.785156 18.015625 0.640625 C 14.128906 0.492188 11.003906 0.347656 8.640625 0.203125 C 6.285156 0.0664062 5.109375 0 5.109375 0 L 5.109375 -59.625 C 5.109375 -59.625 6.285156 -59.695312 8.640625 -59.84375 C 11.003906 -59.988281 14.101562 -60.128906 17.9375 -60.265625 C 21.769531 -60.410156 25.867188 -60.484375 30.234375 -60.484375 C 36.660156 -60.484375 41.832031 -59.71875 45.75 -58.1875 C 49.664062 -56.65625 52.53125 -54.640625 54.34375 -52.140625 C 56.164062 -49.640625 57.078125 -46.882812 57.078125 -43.875 C 57.078125 -41.3125 56.519531 -39.222656 55.40625 -37.609375 C 54.300781 -35.992188 53.007812 -34.742188 51.53125 -33.859375 C 50.0625 -32.984375 48.769531 -32.375 47.65625 -32.03125 C 46.550781 -31.6875 46 -31.515625 46 -31.515625 Z M 27.265625 -45.15625 L 27.265625 -37.484375 L 30.234375 -37.484375 C 31.710938 -37.484375 32.863281 -37.851562 33.6875 -38.59375 C 34.507812 -39.332031 34.921875 -40.238281 34.921875 -41.3125 C 34.921875 -42.394531 34.507812 -43.304688 33.6875 -44.046875 C 32.863281 -44.785156 31.710938 -45.15625 30.234375 -45.15625 Z M 30.671875 -14.484375 C 32.367188 -14.484375 33.644531 -14.878906 34.5 -15.671875 C 35.351562 -16.460938 35.78125 -17.484375 35.78125 -18.734375 C 35.78125 -20.046875 35.351562 -21.082031 34.5 -21.84375 C 33.644531 -22.613281 32.367188 -23 30.671875 -23 L 27.265625 -23 L 27.265625 -14.484375 C 27.265625 -14.484375 27.617188 -14.484375 28.328125 -14.484375 C 29.035156 -14.484375 29.816406 -14.484375 30.671875 -14.484375 Z M 30.671875 -14.484375 "/></g></g></g><g fill="#000000" fill-opacity="1"><g transform="translate(2648.224943, 1862.304325)"><g><path d="M 46 -29.8125 C 46 -32.820312 45.078125 -35.273438 43.234375 -37.171875 C 41.390625 -39.078125 39.1875 -40.03125 36.625 -40.03125 C 34.070312 -40.03125 31.875 -39.078125 30.03125 -37.171875 C 28.1875 -35.273438 27.265625 -32.820312 27.265625 -29.8125 C 27.265625 -26.863281 28.1875 -24.421875 30.03125 -22.484375 C 31.875 -20.554688 34.070312 -19.59375 36.625 -19.59375 C 39.1875 -19.59375 41.390625 -20.554688 43.234375 -22.484375 C 45.078125 -24.421875 46 -26.863281 46 -29.8125 Z M 69.859375 -29.8125 C 69.859375 -25.4375 69.046875 -21.359375 67.421875 -17.578125 C 65.804688 -13.804688 63.519531 -10.515625 60.5625 -7.703125 C 57.613281 -4.898438 54.109375 -2.703125 50.046875 -1.109375 C 45.984375 0.484375 41.507812 1.28125 36.625 1.28125 C 31.738281 1.28125 27.265625 0.484375 23.203125 -1.109375 C 19.148438 -2.703125 15.644531 -4.898438 12.6875 -7.703125 C 9.738281 -10.515625 7.453125 -13.804688 5.828125 -17.578125 C 4.210938 -21.359375 3.40625 -25.4375 3.40625 -29.8125 C 3.40625 -34.1875 4.210938 -38.257812 5.828125 -42.03125 C 7.453125 -45.8125 9.738281 -49.109375 12.6875 -51.921875 C 15.644531 -54.734375 19.148438 -56.929688 23.203125 -58.515625 C 27.265625 -60.109375 31.738281 -60.90625 36.625 -60.90625 C 41.507812 -60.90625 45.984375 -60.109375 50.046875 -58.515625 C 54.109375 -56.929688 57.613281 -54.734375 60.5625 -51.921875 C 63.519531 -49.109375 65.804688 -45.8125 67.421875 -42.03125 C 69.046875 -38.257812 69.859375 -34.1875 69.859375 -29.8125 Z M 69.859375 -29.8125 "/></g></g></g><g fill="#000000" fill-opacity="1"><g transform="translate(2721.491628, 1862.304325)"><g><path d="M 63.890625 0 L 38.328125 0 L 28.109375 -19.59375 L 27.265625 -19.59375 L 27.265625 0 L 5.109375 0 L 5.109375 -59.625 C 5.109375 -59.625 5.789062 -59.664062 7.15625 -59.75 C 8.519531 -59.84375 10.363281 -59.945312 12.6875 -60.0625 C 15.019531 -60.175781 17.660156 -60.273438 20.609375 -60.359375 C 23.566406 -60.441406 26.632812 -60.484375 29.8125 -60.484375 C 36.0625 -60.484375 41.203125 -59.601562 45.234375 -57.84375 C 49.265625 -56.082031 52.242188 -53.640625 54.171875 -50.515625 C 56.109375 -47.390625 57.078125 -43.753906 57.078125 -39.609375 C 57.078125 -36.546875 56.691406 -33.945312 55.921875 -31.8125 C 55.160156 -29.6875 54.265625 -27.96875 53.234375 -26.65625 C 52.210938 -25.351562 51.316406 -24.414062 50.546875 -23.84375 C 49.785156 -23.28125 49.40625 -23 49.40625 -23 Z M 27.265625 -34.921875 L 29.8125 -34.921875 C 31.289062 -34.921875 32.507812 -35.390625 33.46875 -36.328125 C 34.4375 -37.265625 34.921875 -38.359375 34.921875 -39.609375 C 34.921875 -40.921875 34.4375 -42.03125 33.46875 -42.9375 C 32.507812 -43.84375 31.289062 -44.296875 29.8125 -44.296875 L 27.265625 -44.296875 Z M 27.265625 -34.921875 "/></g></g></g><g fill="#000000" fill-opacity="1"><g transform="translate(2783.683181, 1862.304325)"><g><path d="M 47.28125 -59.625 C 47.28125 -59.570312 47.535156 -58.691406 48.046875 -56.984375 C 48.554688 -55.285156 49.222656 -53.015625 50.046875 -50.171875 C 50.867188 -47.335938 51.789062 -44.160156 52.8125 -40.640625 C 53.832031 -37.117188 54.894531 -33.46875 56 -29.6875 C 57.113281 -25.90625 58.195312 -22.253906 59.25 -18.734375 C 60.300781 -15.210938 61.238281 -12.046875 62.0625 -9.234375 C 62.882812 -6.429688 63.535156 -4.191406 64.015625 -2.515625 C 64.503906 -0.835938 64.75 0 64.75 0 L 40.03125 0 L 38.328125 -8.515625 L 27.265625 -8.515625 L 25.5625 0 L 0.859375 0 L 18.3125 -59.625 Z M 29.8125 -22.15625 L 35.78125 -22.15625 L 32.796875 -37.484375 Z M 29.8125 -22.15625 "/></g></g></g><g fill="#000000" fill-opacity="1"><g transform="translate(2849.282495, 1862.304325)"><g><path d="M 1.703125 -59.625 L 56.21875 -59.625 L 56.21875 -40.03125 L 40.03125 -40.03125 L 40.03125 0 L 17.890625 0 L 17.890625 -40.03125 L 1.703125 -40.03125 Z M 1.703125 -59.625 "/></g></g></g><g fill="#000000" fill-opacity="1"><g transform="translate(2907.214345, 1862.304325)"><g><path d="M 27.265625 -21.296875 L 27.265625 -17.03125 L 52.8125 -17.03125 L 52.8125 0 L 5.109375 0 L 5.109375 -59.625 L 51.109375 -59.625 L 51.109375 -42.59375 L 27.265625 -42.59375 L 27.265625 -38.328125 L 49.40625 -38.328125 L 49.40625 -21.296875 Z M 27.265625 -21.296875 "/></g></g></g><g fill="#000000" fill-opacity="1"><g transform="translate(2962.590374, 1862.304325)"><g><path d="M 3.40625 -17.03125 L 21.296875 -17.03125 L 21.296875 0 L 3.40625 0 Z M 3.40625 -17.03125 "/></g></g></g><g fill="#000000" fill-opacity="1"><g transform="translate(2987.296552, 1862.304325)"><g/></g></g><g fill="#000000" fill-opacity="1"><g transform="translate(3004.335359, 1862.304325)"><g><path d="M 27.265625 -21.296875 L 27.265625 -17.03125 L 52.8125 -17.03125 L 52.8125 0 L 5.109375 0 L 5.109375 -59.625 L 51.109375 -59.625 L 51.109375 -42.59375 L 27.265625 -42.59375 L 27.265625 -38.328125 L 49.40625 -38.328125 L 49.40625 -21.296875 Z M 27.265625 -21.296875 "/></g></g></g><g fill="#000000" fill-opacity="1"><g transform="translate(3059.711388, 1862.304325)"><g><path d="M 27.265625 -59.625 L 27.265625 -19.59375 L 50.265625 -19.59375 L 50.265625 0 L 5.109375 0 L 5.109375 -59.625 Z M 27.265625 -59.625 "/></g></g></g><g fill="#000000" fill-opacity="1"><g transform="translate(3111.679657, 1862.304325)"><g><path d="M 27.265625 -21.296875 L 27.265625 -17.03125 L 52.8125 -17.03125 L 52.8125 0 L 5.109375 0 L 5.109375 -59.625 L 51.109375 -59.625 L 51.109375 -42.59375 L 27.265625 -42.59375 L 27.265625 -38.328125 L 49.40625 -38.328125 L 49.40625 -21.296875 Z M 27.265625 -21.296875 "/></g></g></g><g fill="#000000" fill-opacity="1"><g transform="translate(3167.055687, 1862.304325)"><g><path d="M 0.859375 -59.625 L 25.5625 -59.625 L 31.9375 -24.703125 L 38.328125 -59.625 L 63.03125 -59.625 L 46.421875 0 L 17.46875 0 Z M 0.859375 -59.625 "/></g></g></g><g fill="#000000" fill-opacity="1"><g transform="translate(3230.95112, 1862.304325)"><g><path d="M 47.28125 -59.625 C 47.28125 -59.570312 47.535156 -58.691406 48.046875 -56.984375 C 48.554688 -55.285156 49.222656 -53.015625 50.046875 -50.171875 C 50.867188 -47.335938 51.789062 -44.160156 52.8125 -40.640625 C 53.832031 -37.117188 54.894531 -33.46875 56 -29.6875 C 57.113281 -25.90625 58.195312 -22.253906 59.25 -18.734375 C 60.300781 -15.210938 61.238281 -12.046875 62.0625 -9.234375 C 62.882812 -6.429688 63.535156 -4.191406 64.015625 -2.515625 C 64.503906 -0.835938 64.75 0 64.75 0 L 40.03125 0 L 38.328125 -8.515625 L 27.265625 -8.515625 L 25.5625 0 L 0.859375 0 L 18.3125 -59.625 Z M 29.8125 -22.15625 L 35.78125 -22.15625 L 32.796875 -37.484375 Z M 29.8125 -22.15625 "/></g></g></g><g fill="#000000" fill-opacity="1"><g transform="translate(3296.550434, 1862.304325)"><g><path d="M 1.703125 -59.625 L 56.21875 -59.625 L 56.21875 -40.03125 L 40.03125 -40.03125 L 40.03125 0 L 17.890625 0 L 17.890625 -40.03125 L 1.703125 -40.03125 Z M 1.703125 -59.625 "/></g></g></g><g fill="#000000" fill-opacity="1"><g transform="translate(3354.482194, 1862.304325)"><g><path d="M 27.265625 -21.296875 L 27.265625 -17.03125 L 52.8125 -17.03125 L 52.8125 0 L 5.109375 0 L 5.109375 -59.625 L 51.109375 -59.625 L 51.109375 -42.59375 L 27.265625 -42.59375 L 27.265625 -38.328125 L 49.40625 -38.328125 L 49.40625 -21.296875 Z M 27.265625 -21.296875 "/></g></g></g><g fill="#000000" fill-opacity="1"><g transform="translate(3409.858223, 1862.304325)"><g><path d="M 3.40625 -17.03125 L 21.296875 -17.03125 L 21.296875 0 L 3.40625 0 Z M 3.40625 -17.03125 "/></g></g></g><g clip-path="url(#678e321a89)"><g clip-path="url(#0190e16dac)"><path fill="#ea5080" d="M 2018.515625 1969.699219 L 3078.210938 1969.699219 L 3078.210938 2122.105469 L 2018.515625 2122.105469 Z M 2018.515625 1969.699219 " fill-opacity="1" fill-rule="nonzero"/></g></g><g fill="#ffffff" fill-opacity="1"><g transform="translate(2128.532711, 2061.272123)"><g><path d="M 15.78125 -12.328125 L 15.78125 -9.859375 L 30.5625 -9.859375 L 30.5625 0 L 2.953125 0 L 2.953125 -34.5 L 29.578125 -34.5 L 29.578125 -24.640625 L 15.78125 -24.640625 L 15.78125 -22.1875 L 28.59375 -22.1875 L 28.59375 -12.328125 Z M 15.78125 -12.328125 "/></g></g></g><g fill="#ffffff" fill-opacity="1"><g transform="translate(2160.573419, 2061.272123)"><g><path d="M 24.40625 -7.890625 C 24.40625 -6.347656 23.96875 -4.914062 23.09375 -3.59375 C 22.226562 -2.28125 20.9375 -1.226562 19.21875 -0.4375 C 17.507812 0.34375 15.375 0.734375 12.8125 0.734375 C 10.78125 0.734375 9 0.492188 7.46875 0.015625 C 5.9375 -0.453125 4.65625 -0.988281 3.625 -1.59375 C 2.59375 -2.207031 1.8125 -2.75 1.28125 -3.21875 C 0.757812 -3.695312 0.5 -3.9375 0.5 -3.9375 L 4.1875 -9.859375 C 4.1875 -9.859375 4.441406 -9.648438 4.953125 -9.234375 C 5.460938 -8.828125 6.1875 -8.414062 7.125 -8 C 8.0625 -7.59375 9.140625 -7.390625 10.359375 -7.390625 C 10.710938 -7.390625 11.003906 -7.492188 11.234375 -7.703125 C 11.460938 -7.921875 11.578125 -8.144531 11.578125 -8.375 C 11.578125 -8.675781 11.253906 -8.957031 10.609375 -9.21875 C 9.972656 -9.476562 9.175781 -9.804688 8.21875 -10.203125 C 7.269531 -10.597656 6.3125 -11.125 5.34375 -11.78125 C 4.375 -12.4375 3.566406 -13.28125 2.921875 -14.3125 C 2.285156 -15.351562 1.96875 -16.660156 1.96875 -18.234375 C 1.96875 -19.816406 2.398438 -21.253906 3.265625 -22.546875 C 4.140625 -23.847656 5.441406 -24.890625 7.171875 -25.671875 C 8.898438 -26.460938 11.03125 -26.859375 13.5625 -26.859375 C 15.238281 -26.859375 16.738281 -26.644531 18.0625 -26.21875 C 19.394531 -25.789062 20.53125 -25.304688 21.46875 -24.765625 C 22.40625 -24.222656 23.128906 -23.738281 23.640625 -23.3125 C 24.148438 -22.882812 24.40625 -22.671875 24.40625 -22.671875 L 20.703125 -16.765625 C 20.703125 -16.765625 20.492188 -16.925781 20.078125 -17.25 C 19.671875 -17.582031 19.125 -17.910156 18.4375 -18.234375 C 17.75 -18.566406 16.941406 -18.734375 16.015625 -18.734375 C 15.660156 -18.734375 15.363281 -18.632812 15.125 -18.4375 C 14.894531 -18.238281 14.78125 -18.007812 14.78125 -17.75 C 14.78125 -17.445312 15.101562 -17.164062 15.75 -16.90625 C 16.394531 -16.644531 17.203125 -16.316406 18.171875 -15.921875 C 19.140625 -15.523438 20.097656 -15 21.046875 -14.34375 C 22.003906 -13.6875 22.800781 -12.835938 23.4375 -11.796875 C 24.082031 -10.765625 24.40625 -9.460938 24.40625 -7.890625 Z M 24.40625 -7.890625 "/></g></g></g><g fill="#ffffff" fill-opacity="1"><g transform="translate(2185.959517, 2061.272123)"><g><path d="M 4.4375 -16.265625 L 0.984375 -16.265625 L 0.984375 -26.125 L 4.4375 -26.125 L 4.4375 -34.5 L 16.265625 -34.5 L 16.265625 -26.125 L 20.703125 -26.125 L 20.703125 -16.265625 L 16.265625 -16.265625 L 16.265625 -12.078125 C 16.265625 -11.085938 16.492188 -10.347656 16.953125 -9.859375 C 17.410156 -9.367188 18.003906 -9.125 18.734375 -9.125 C 19.222656 -9.125 19.671875 -9.160156 20.078125 -9.234375 C 20.492188 -9.316406 20.703125 -9.359375 20.703125 -9.359375 L 20.703125 0.5 C 20.703125 0.5 20.273438 0.578125 19.421875 0.734375 C 18.566406 0.898438 17.515625 0.984375 16.265625 0.984375 C 12.585938 0.984375 9.695312 -0.113281 7.59375 -2.3125 C 5.488281 -4.519531 4.4375 -7.773438 4.4375 -12.078125 Z M 4.4375 -16.265625 "/></g></g></g><g fill="#ffffff" fill-opacity="1"><g transform="translate(2209.127416, 2061.272123)"><g><path d="M 1.96875 -9.859375 L 12.328125 -9.859375 L 12.328125 0 L 1.96875 0 Z M 1.96875 -9.859375 "/></g></g></g><g fill="#ffffff" fill-opacity="1"><g transform="translate(2223.422494, 2061.272123)"><g/></g></g><g fill="#ffffff" fill-opacity="1"><g transform="translate(2233.281174, 2061.272123)"><g><path d="M 29.828125 -24.15625 C 29.828125 -22.476562 29.476562 -20.941406 28.78125 -19.546875 C 28.09375 -18.148438 27.226562 -16.914062 26.1875 -15.84375 C 25.15625 -14.78125 24.125 -13.867188 23.09375 -13.109375 C 22.0625 -12.359375 21.195312 -11.789062 20.5 -11.40625 C 19.8125 -11.03125 19.46875 -10.84375 19.46875 -10.84375 L 29.328125 -10.84375 L 29.328125 0 L 2.71875 0 L 2.71875 -9.859375 C 2.71875 -9.859375 3.046875 -10.070312 3.703125 -10.5 C 4.359375 -10.925781 5.210938 -11.492188 6.265625 -12.203125 C 7.316406 -12.910156 8.429688 -13.707031 9.609375 -14.59375 C 10.796875 -15.476562 11.914062 -16.40625 12.96875 -17.375 C 14.019531 -18.34375 14.875 -19.285156 15.53125 -20.203125 C 16.1875 -21.128906 16.515625 -21.953125 16.515625 -22.671875 C 16.515625 -23.429688 16.273438 -24.03125 15.796875 -24.46875 C 15.316406 -24.914062 14.648438 -25.140625 13.796875 -25.140625 C 12.421875 -25.140625 11.191406 -24.914062 10.109375 -24.46875 C 9.023438 -24.03125 8.175781 -23.582031 7.5625 -23.125 C 6.957031 -22.664062 6.65625 -22.4375 6.65625 -22.4375 L 1.96875 -29.828125 C 1.96875 -29.828125 2.242188 -30.097656 2.796875 -30.640625 C 3.359375 -31.179688 4.207031 -31.8125 5.34375 -32.53125 C 6.476562 -33.257812 7.914062 -33.894531 9.65625 -34.4375 C 11.40625 -34.976562 13.445312 -35.25 15.78125 -35.25 C 18.664062 -35.25 21.148438 -34.710938 23.234375 -33.640625 C 25.328125 -32.578125 26.945312 -31.207031 28.09375 -29.53125 C 29.25 -27.851562 29.828125 -26.0625 29.828125 -24.15625 Z M 29.828125 -24.15625 "/></g></g></g><g fill="#ffffff" fill-opacity="1"><g transform="translate(2265.568349, 2061.272123)"><g><path d="M 18.734375 -24.15625 C 17.742188 -24.15625 16.835938 -23.617188 16.015625 -22.546875 C 15.191406 -21.484375 14.78125 -19.71875 14.78125 -17.25 C 14.78125 -14.789062 15.191406 -13.023438 16.015625 -11.953125 C 16.835938 -10.890625 17.742188 -10.359375 18.734375 -10.359375 C 19.722656 -10.359375 20.625 -10.890625 21.4375 -11.953125 C 22.257812 -13.023438 22.671875 -14.789062 22.671875 -17.25 C 22.671875 -19.71875 22.257812 -21.484375 21.4375 -22.546875 C 20.625 -23.617188 19.722656 -24.15625 18.734375 -24.15625 Z M 18.734375 0.734375 C 16.398438 0.734375 14.210938 0.300781 12.171875 -0.5625 C 10.140625 -1.4375 8.359375 -2.675781 6.828125 -4.28125 C 5.296875 -5.894531 4.101562 -7.796875 3.25 -9.984375 C 2.394531 -12.171875 1.96875 -14.59375 1.96875 -17.25 C 1.96875 -19.914062 2.394531 -22.335938 3.25 -24.515625 C 4.101562 -26.703125 5.296875 -28.601562 6.828125 -30.21875 C 8.359375 -31.832031 10.140625 -33.070312 12.171875 -33.9375 C 14.210938 -34.8125 16.398438 -35.25 18.734375 -35.25 C 21.066406 -35.25 23.25 -34.8125 25.28125 -33.9375 C 27.320312 -33.070312 29.109375 -31.832031 30.640625 -30.21875 C 32.171875 -28.601562 33.363281 -26.703125 34.21875 -24.515625 C 35.070312 -22.335938 35.5 -19.914062 35.5 -17.25 C 35.5 -14.59375 35.070312 -12.171875 34.21875 -9.984375 C 33.363281 -7.796875 32.171875 -5.894531 30.640625 -4.28125 C 29.109375 -2.675781 27.320312 -1.4375 25.28125 -0.5625 C 23.25 0.300781 21.066406 0.734375 18.734375 0.734375 Z M 18.734375 0.734375 "/></g></g></g><g fill="#ffffff" fill-opacity="1"><g transform="translate(2303.031327, 2061.272123)"><g><path d="M 29.828125 -24.15625 C 29.828125 -22.476562 29.476562 -20.941406 28.78125 -19.546875 C 28.09375 -18.148438 27.226562 -16.914062 26.1875 -15.84375 C 25.15625 -14.78125 24.125 -13.867188 23.09375 -13.109375 C 22.0625 -12.359375 21.195312 -11.789062 20.5 -11.40625 C 19.8125 -11.03125 19.46875 -10.84375 19.46875 -10.84375 L 29.328125 -10.84375 L 29.328125 0 L 2.71875 0 L 2.71875 -9.859375 C 2.71875 -9.859375 3.046875 -10.070312 3.703125 -10.5 C 4.359375 -10.925781 5.210938 -11.492188 6.265625 -12.203125 C 7.316406 -12.910156 8.429688 -13.707031 9.609375 -14.59375 C 10.796875 -15.476562 11.914062 -16.40625 12.96875 -17.375 C 14.019531 -18.34375 14.875 -19.285156 15.53125 -20.203125 C 16.1875 -21.128906 16.515625 -21.953125 16.515625 -22.671875 C 16.515625 -23.429688 16.273438 -24.03125 15.796875 -24.46875 C 15.316406 -24.914062 14.648438 -25.140625 13.796875 -25.140625 C 12.421875 -25.140625 11.191406 -24.914062 10.109375 -24.46875 C 9.023438 -24.03125 8.175781 -23.582031 7.5625 -23.125 C 6.957031 -22.664062 6.65625 -22.4375 6.65625 -22.4375 L 1.96875 -29.828125 C 1.96875 -29.828125 2.242188 -30.097656 2.796875 -30.640625 C 3.359375 -31.179688 4.207031 -31.8125 5.34375 -32.53125 C 6.476562 -33.257812 7.914062 -33.894531 9.65625 -34.4375 C 11.40625 -34.976562 13.445312 -35.25 15.78125 -35.25 C 18.664062 -35.25 21.148438 -34.710938 23.234375 -33.640625 C 25.328125 -32.578125 26.945312 -31.207031 28.09375 -29.53125 C 29.25 -27.851562 29.828125 -26.0625 29.828125 -24.15625 Z M 29.828125 -24.15625 "/></g></g></g><g fill="#ffffff" fill-opacity="1"><g transform="translate(2335.318502, 2061.272123)"><g><path d="M 28.59375 -14.78125 L 31.546875 -14.78125 L 31.546875 -5.421875 L 28.59375 -5.421875 L 28.59375 0 L 15.78125 0 L 15.78125 -5.421875 L 1.484375 -5.421875 L 1.484375 -14.78125 L 13.796875 -34.5 L 28.59375 -34.5 Z M 12.8125 -14.78125 L 15.78125 -14.78125 L 15.78125 -21.203125 Z M 12.8125 -14.78125 "/></g></g></g><g fill="#ffffff" fill-opacity="1"><g transform="translate(2367.852145, 2061.272123)"><g/></g></g><g fill="#ffffff" fill-opacity="1"><g transform="translate(2377.710814, 2061.272123)"><g><path d="M 3.9375 -15.28125 C 3.9375 -16.59375 4.238281 -17.765625 4.84375 -18.796875 C 5.457031 -19.835938 6.28125 -20.660156 7.3125 -21.265625 C 8.351562 -21.878906 9.53125 -22.1875 10.84375 -22.1875 C 12.15625 -22.1875 13.328125 -21.878906 14.359375 -21.265625 C 15.398438 -20.660156 16.222656 -19.835938 16.828125 -18.796875 C 17.441406 -17.765625 17.75 -16.59375 17.75 -15.28125 C 17.75 -13.96875 17.441406 -12.789062 16.828125 -11.75 C 16.222656 -10.71875 15.398438 -9.894531 14.359375 -9.28125 C 13.328125 -8.675781 12.15625 -8.375 10.84375 -8.375 C 9.53125 -8.375 8.351562 -8.675781 7.3125 -9.28125 C 6.28125 -9.894531 5.457031 -10.71875 4.84375 -11.75 C 4.238281 -12.789062 3.9375 -13.96875 3.9375 -15.28125 Z M 3.9375 -15.28125 "/></g></g></g><g fill="#ffffff" fill-opacity="1"><g transform="translate(2399.399894, 2061.272123)"><g/></g></g><g fill="#ffffff" fill-opacity="1"><g transform="translate(2409.258563, 2061.272123)"><g><path d="M 19.71875 -11.578125 C 20.832031 -11.578125 21.765625 -11.976562 22.515625 -12.78125 C 23.273438 -13.59375 23.65625 -14.671875 23.65625 -16.015625 L 23.65625 -34.5 L 36.484375 -34.5 L 36.484375 -16.015625 C 36.484375 -12.734375 35.765625 -9.832031 34.328125 -7.3125 C 32.898438 -4.800781 30.925781 -2.832031 28.40625 -1.40625 C 25.894531 0.0195312 23 0.734375 19.71875 0.734375 C 16.425781 0.734375 13.523438 0.0195312 11.015625 -1.40625 C 8.503906 -2.832031 6.53125 -4.800781 5.09375 -7.3125 C 3.664062 -9.832031 2.953125 -12.734375 2.953125 -16.015625 L 2.953125 -34.5 L 15.78125 -34.5 L 15.78125 -16.015625 C 15.78125 -14.671875 16.15625 -13.59375 16.90625 -12.78125 C 17.664062 -11.976562 18.601562 -11.578125 19.71875 -11.578125 Z M 19.71875 -11.578125 "/></g></g></g><g fill="#ffffff" fill-opacity="1"><g transform="translate(2448.693283, 2061.272123)"><g><path d="M 21.203125 -26.859375 C 22.835938 -26.859375 24.328125 -26.40625 25.671875 -25.5 C 27.023438 -24.601562 28.097656 -23.191406 28.890625 -21.265625 C 29.679688 -19.347656 30.078125 -16.859375 30.078125 -13.796875 L 30.078125 0 L 18.234375 0 L 18.234375 -13.796875 C 18.234375 -14.785156 18.023438 -15.523438 17.609375 -16.015625 C 17.203125 -16.515625 16.753906 -16.765625 16.265625 -16.765625 C 15.773438 -16.765625 15.320312 -16.515625 14.90625 -16.015625 C 14.5 -15.523438 14.296875 -14.785156 14.296875 -13.796875 L 14.296875 0 L 2.46875 0 L 2.46875 -26.125 L 13.796875 -26.125 L 14.78125 -23.171875 C 14.78125 -23.171875 14.90625 -23.359375 15.15625 -23.734375 C 15.40625 -24.109375 15.789062 -24.535156 16.3125 -25.015625 C 16.84375 -25.492188 17.507812 -25.921875 18.3125 -26.296875 C 19.113281 -26.671875 20.078125 -26.859375 21.203125 -26.859375 Z M 21.203125 -26.859375 "/></g></g></g><g fill="#ffffff" fill-opacity="1"><g transform="translate(2480.733991, 2061.272123)"><g><path d="M 2.46875 -26.125 L 14.296875 -26.125 L 14.296875 0 L 2.46875 0 Z M 2.46875 -29.078125 L 2.46875 -38.453125 L 14.296875 -38.453125 L 14.296875 -29.078125 Z M 2.46875 -29.078125 "/></g></g></g><g fill="#ffffff" fill-opacity="1"><g transform="translate(2497.493759, 2061.272123)"><g><path d="M 21.4375 0 L 7.640625 0 L 0 -26.125 L 12.328125 -26.125 L 14.546875 -12.328125 L 16.765625 -26.125 L 29.078125 -26.125 Z M 21.4375 0 "/></g></g></g><g fill="#ffffff" fill-opacity="1"><g transform="translate(2526.576852, 2061.272123)"><g><path d="M 15.28125 -26.859375 C 17.1875 -26.859375 18.976562 -26.503906 20.65625 -25.796875 C 22.332031 -25.097656 23.800781 -24.113281 25.0625 -22.84375 C 26.332031 -21.582031 27.316406 -20.113281 28.015625 -18.4375 C 28.722656 -16.757812 29.078125 -14.96875 29.078125 -13.0625 C 29.078125 -13 29.078125 -12.773438 29.078125 -12.390625 C 29.078125 -12.015625 29.078125 -11.640625 29.078125 -11.265625 C 29.078125 -10.890625 29.078125 -10.664062 29.078125 -10.59375 L 13.3125 -10.59375 C 13.3125 -10.59375 13.410156 -10.367188 13.609375 -9.921875 C 13.804688 -9.484375 14.21875 -9.035156 14.84375 -8.578125 C 15.46875 -8.117188 16.4375 -7.890625 17.75 -7.890625 C 18.570312 -7.890625 19.316406 -8.050781 19.984375 -8.375 C 20.660156 -8.707031 21.195312 -9.035156 21.59375 -9.359375 C 21.988281 -9.691406 22.1875 -9.859375 22.1875 -9.859375 L 26.375 -3.203125 C 26.375 -3.203125 26.144531 -3.003906 25.6875 -2.609375 C 25.226562 -2.210938 24.5625 -1.75 23.6875 -1.21875 C 22.8125 -0.695312 21.734375 -0.242188 20.453125 0.140625 C 19.171875 0.535156 17.691406 0.734375 16.015625 0.734375 C 13.222656 0.734375 10.734375 0.117188 8.546875 -1.109375 C 6.367188 -2.335938 4.644531 -4.003906 3.375 -6.109375 C 2.113281 -8.210938 1.484375 -10.53125 1.484375 -13.0625 C 1.484375 -14.96875 1.832031 -16.757812 2.53125 -18.4375 C 3.238281 -20.113281 4.222656 -21.582031 5.484375 -22.84375 C 6.753906 -24.113281 8.226562 -25.097656 9.90625 -25.796875 C 11.582031 -26.503906 13.375 -26.859375 15.28125 -26.859375 Z M 13.0625 -15.28125 L 17.5 -15.28125 C 17.5 -16.269531 17.285156 -17.007812 16.859375 -17.5 C 16.429688 -17.988281 15.90625 -18.234375 15.28125 -18.234375 C 14.65625 -18.234375 14.128906 -17.988281 13.703125 -17.5 C 13.273438 -17.007812 13.0625 -16.269531 13.0625 -15.28125 Z M 13.0625 -15.28125 "/></g></g></g><g fill="#ffffff" fill-opacity="1"><g transform="translate(2556.645816, 2061.272123)"><g><path d="M 14.78125 -23.171875 C 14.78125 -23.171875 14.90625 -23.359375 15.15625 -23.734375 C 15.40625 -24.109375 15.773438 -24.535156 16.265625 -25.015625 C 16.753906 -25.492188 17.367188 -25.921875 18.109375 -26.296875 C 18.847656 -26.671875 19.710938 -26.859375 20.703125 -26.859375 C 21.691406 -26.859375 22.515625 -26.734375 23.171875 -26.484375 C 23.828125 -26.242188 24.15625 -26.125 24.15625 -26.125 L 22.1875 -15.28125 C 22.1875 -15.28125 22.003906 -15.363281 21.640625 -15.53125 C 21.273438 -15.695312 20.820312 -15.859375 20.28125 -16.015625 C 19.738281 -16.179688 19.222656 -16.265625 18.734375 -16.265625 C 17.515625 -16.265625 16.46875 -15.796875 15.59375 -14.859375 C 14.726562 -13.921875 14.296875 -12.582031 14.296875 -10.84375 L 14.296875 0 L 2.46875 0 L 2.46875 -26.125 L 13.796875 -26.125 Z M 14.78125 -23.171875 "/></g></g></g><g fill="#ffffff" fill-opacity="1"><g transform="translate(2580.30664, 2061.272123)"><g><path d="M 24.40625 -7.890625 C 24.40625 -6.347656 23.96875 -4.914062 23.09375 -3.59375 C 22.226562 -2.28125 20.9375 -1.226562 19.21875 -0.4375 C 17.507812 0.34375 15.375 0.734375 12.8125 0.734375 C 10.78125 0.734375 9 0.492188 7.46875 0.015625 C 5.9375 -0.453125 4.65625 -0.988281 3.625 -1.59375 C 2.59375 -2.207031 1.8125 -2.75 1.28125 -3.21875 C 0.757812 -3.695312 0.5 -3.9375 0.5 -3.9375 L 4.1875 -9.859375 C 4.1875 -9.859375 4.441406 -9.648438 4.953125 -9.234375 C 5.460938 -8.828125 6.1875 -8.414062 7.125 -8 C 8.0625 -7.59375 9.140625 -7.390625 10.359375 -7.390625 C 10.710938 -7.390625 11.003906 -7.492188 11.234375 -7.703125 C 11.460938 -7.921875 11.578125 -8.144531 11.578125 -8.375 C 11.578125 -8.675781 11.253906 -8.957031 10.609375 -9.21875 C 9.972656 -9.476562 9.175781 -9.804688 8.21875 -10.203125 C 7.269531 -10.597656 6.3125 -11.125 5.34375 -11.78125 C 4.375 -12.4375 3.566406 -13.28125 2.921875 -14.3125 C 2.285156 -15.351562 1.96875 -16.660156 1.96875 -18.234375 C 1.96875 -19.816406 2.398438 -21.253906 3.265625 -22.546875 C 4.140625 -23.847656 5.441406 -24.890625 7.171875 -25.671875 C 8.898438 -26.460938 11.03125 -26.859375 13.5625 -26.859375 C 15.238281 -26.859375 16.738281 -26.644531 18.0625 -26.21875 C 19.394531 -25.789062 20.53125 -25.304688 21.46875 -24.765625 C 22.40625 -24.222656 23.128906 -23.738281 23.640625 -23.3125 C 24.148438 -22.882812 24.40625 -22.671875 24.40625 -22.671875 L 20.703125 -16.765625 C 20.703125 -16.765625 20.492188 -16.925781 20.078125 -17.25 C 19.671875 -17.582031 19.125 -17.910156 18.4375 -18.234375 C 17.75 -18.566406 16.941406 -18.734375 16.015625 -18.734375 C 15.660156 -18.734375 15.363281 -18.632812 15.125 -18.4375 C 14.894531 -18.238281 14.78125 -18.007812 14.78125 -17.75 C 14.78125 -17.445312 15.101562 -17.164062 15.75 -16.90625 C 16.394531 -16.644531 17.203125 -16.316406 18.171875 -15.921875 C 19.140625 -15.523438 20.097656 -15 21.046875 -14.34375 C 22.003906 -13.6875 22.800781 -12.835938 23.4375 -11.796875 C 24.082031 -10.765625 24.40625 -9.460938 24.40625 -7.890625 Z M 24.40625 -7.890625 "/></g></g></g><g fill="#ffffff" fill-opacity="1"><g transform="translate(2605.692749, 2061.272123)"><g><path d="M 2.46875 -26.125 L 14.296875 -26.125 L 14.296875 0 L 2.46875 0 Z M 2.46875 -29.078125 L 2.46875 -38.453125 L 14.296875 -38.453125 L 14.296875 -29.078125 Z M 2.46875 -29.078125 "/></g></g></g><g fill="#ffffff" fill-opacity="1"><g transform="translate(2622.452518, 2061.272123)"><g><path d="M 4.4375 -16.265625 L 0.984375 -16.265625 L 0.984375 -26.125 L 4.4375 -26.125 L 4.4375 -34.5 L 16.265625 -34.5 L 16.265625 -26.125 L 20.703125 -26.125 L 20.703125 -16.265625 L 16.265625 -16.265625 L 16.265625 -12.078125 C 16.265625 -11.085938 16.492188 -10.347656 16.953125 -9.859375 C 17.410156 -9.367188 18.003906 -9.125 18.734375 -9.125 C 19.222656 -9.125 19.671875 -9.160156 20.078125 -9.234375 C 20.492188 -9.316406 20.703125 -9.359375 20.703125 -9.359375 L 20.703125 0.5 C 20.703125 0.5 20.273438 0.578125 19.421875 0.734375 C 18.566406 0.898438 17.515625 0.984375 16.265625 0.984375 C 12.585938 0.984375 9.695312 -0.113281 7.59375 -2.3125 C 5.488281 -4.519531 4.4375 -7.773438 4.4375 -12.078125 Z M 4.4375 -16.265625 "/></g></g></g><g fill="#ffffff" fill-opacity="1"><g transform="translate(2645.620428, 2061.272123)"><g><path d="M 7.890625 1.96875 L 8.625 0 L 0 -26.125 L 12.328125 -26.125 L 14.546875 -12.328125 L 16.765625 -26.125 L 29.078125 -26.125 L 19.71875 1.96875 C 18.726562 4.925781 17.65625 7.304688 16.5 9.109375 C 15.351562 10.921875 14.023438 12.238281 12.515625 13.0625 C 11.003906 13.882812 9.210938 14.296875 7.140625 14.296875 C 5.992188 14.296875 4.9375 14.128906 3.96875 13.796875 C 3 13.472656 2.21875 13.144531 1.625 12.8125 C 1.03125 12.488281 0.734375 12.328125 0.734375 12.328125 L 3.453125 3.703125 C 3.453125 3.703125 3.613281 3.78125 3.9375 3.9375 C 4.269531 4.101562 4.679688 4.1875 5.171875 4.1875 C 5.796875 4.1875 6.347656 3.972656 6.828125 3.546875 C 7.304688 3.117188 7.660156 2.59375 7.890625 1.96875 Z M 7.890625 1.96875 "/></g></g></g><g fill="#ffffff" fill-opacity="1"><g transform="translate(2674.703521, 2061.272123)"><g/></g></g><g fill="#ffffff" fill-opacity="1"><g transform="translate(2684.562189, 2061.272123)"><g><path d="M 1.484375 -13.0625 C 1.484375 -15.625 2.125 -17.945312 3.40625 -20.03125 C 4.6875 -22.125 6.453125 -23.785156 8.703125 -25.015625 C 10.953125 -26.242188 13.554688 -26.859375 16.515625 -26.859375 C 19.472656 -26.859375 22.082031 -26.242188 24.34375 -25.015625 C 26.613281 -23.785156 28.378906 -22.125 29.640625 -20.03125 C 30.910156 -17.945312 31.546875 -15.625 31.546875 -13.0625 C 31.546875 -10.53125 30.910156 -8.210938 29.640625 -6.109375 C 28.378906 -4.003906 26.613281 -2.335938 24.34375 -1.109375 C 22.082031 0.117188 19.472656 0.734375 16.515625 0.734375 C 13.554688 0.734375 10.953125 0.117188 8.703125 -1.109375 C 6.453125 -2.335938 4.6875 -4.003906 3.40625 -6.109375 C 2.125 -8.210938 1.484375 -10.53125 1.484375 -13.0625 Z M 19.71875 -13.0625 C 19.71875 -14.175781 19.394531 -15.070312 18.75 -15.75 C 18.113281 -16.425781 17.367188 -16.765625 16.515625 -16.765625 C 15.660156 -16.765625 14.910156 -16.425781 14.265625 -15.75 C 13.628906 -15.070312 13.3125 -14.175781 13.3125 -13.0625 C 13.3125 -11.945312 13.628906 -11.050781 14.265625 -10.375 C 14.910156 -9.695312 15.660156 -9.359375 16.515625 -9.359375 C 17.367188 -9.359375 18.113281 -9.695312 18.75 -10.375 C 19.394531 -11.050781 19.71875 -11.945312 19.71875 -13.0625 Z M 19.71875 -13.0625 "/></g></g></g><g fill="#ffffff" fill-opacity="1"><g transform="translate(2717.588768, 2061.272123)"><g><path d="M 0.984375 -24.640625 L 4.4375 -24.640625 L 4.4375 -25.390625 C 4.4375 -29.691406 5.488281 -32.941406 7.59375 -35.140625 C 9.695312 -37.347656 12.585938 -38.453125 16.265625 -38.453125 C 17.515625 -38.453125 18.566406 -38.367188 19.421875 -38.203125 C 20.273438 -38.035156 20.703125 -37.953125 20.703125 -37.953125 L 20.703125 -28.09375 C 20.703125 -28.09375 20.492188 -28.132812 20.078125 -28.21875 C 19.671875 -28.300781 19.222656 -28.34375 18.734375 -28.34375 C 18.003906 -28.34375 17.410156 -28.09375 16.953125 -27.59375 C 16.492188 -27.101562 16.265625 -26.367188 16.265625 -25.390625 L 16.265625 -24.640625 L 20.703125 -24.640625 L 20.703125 -14.78125 L 16.265625 -14.78125 L 16.265625 0 L 4.4375 0 L 4.4375 -14.78125 L 0.984375 -14.78125 Z M 0.984375 -24.640625 "/></g></g></g><g fill="#ffffff" fill-opacity="1"><g transform="translate(2739.770806, 2061.272123)"><g/></g></g><g fill="#ffffff" fill-opacity="1"><g transform="translate(2749.629475, 2061.272123)"><g><path d="M 15.78125 -34.5 L 15.78125 -22.671875 L 23.65625 -22.671875 L 23.65625 -34.5 L 36.484375 -34.5 L 36.484375 0 L 23.65625 0 L 23.65625 -11.828125 L 15.78125 -11.828125 L 15.78125 0 L 2.953125 0 L 2.953125 -34.5 Z M 15.78125 -34.5 "/></g></g></g><g fill="#ffffff" fill-opacity="1"><g transform="translate(2789.064196, 2061.272123)"><g><path d="M 1.484375 -13.0625 C 1.484375 -15.625 2.125 -17.945312 3.40625 -20.03125 C 4.6875 -22.125 6.453125 -23.785156 8.703125 -25.015625 C 10.953125 -26.242188 13.554688 -26.859375 16.515625 -26.859375 C 19.472656 -26.859375 22.082031 -26.242188 24.34375 -25.015625 C 26.613281 -23.785156 28.378906 -22.125 29.640625 -20.03125 C 30.910156 -17.945312 31.546875 -15.625 31.546875 -13.0625 C 31.546875 -10.53125 30.910156 -8.210938 29.640625 -6.109375 C 28.378906 -4.003906 26.613281 -2.335938 24.34375 -1.109375 C 22.082031 0.117188 19.472656 0.734375 16.515625 0.734375 C 13.554688 0.734375 10.953125 0.117188 8.703125 -1.109375 C 6.453125 -2.335938 4.6875 -4.003906 3.40625 -6.109375 C 2.125 -8.210938 1.484375 -10.53125 1.484375 -13.0625 Z M 19.71875 -13.0625 C 19.71875 -14.175781 19.394531 -15.070312 18.75 -15.75 C 18.113281 -16.425781 17.367188 -16.765625 16.515625 -16.765625 C 15.660156 -16.765625 14.910156 -16.425781 14.265625 -15.75 C 13.628906 -15.070312 13.3125 -14.175781 13.3125 -13.0625 C 13.3125 -11.945312 13.628906 -11.050781 14.265625 -10.375 C 14.910156 -9.695312 15.660156 -9.359375 16.515625 -9.359375 C 17.367188 -9.359375 18.113281 -9.695312 18.75 -10.375 C 19.394531 -11.050781 19.71875 -11.945312 19.71875 -13.0625 Z M 19.71875 -13.0625 "/></g></g></g><g fill="#ffffff" fill-opacity="1"><g transform="translate(2822.090774, 2061.272123)"><g><path d="M 11.34375 0.734375 C 9.695312 0.734375 8.195312 0.285156 6.84375 -0.609375 C 5.5 -1.515625 4.429688 -2.9375 3.640625 -4.875 C 2.859375 -6.8125 2.46875 -9.296875 2.46875 -12.328125 L 2.46875 -26.125 L 14.296875 -26.125 L 14.296875 -12.328125 C 14.296875 -11.335938 14.5 -10.59375 14.90625 -10.09375 C 15.320312 -9.601562 15.773438 -9.359375 16.265625 -9.359375 C 16.753906 -9.359375 17.203125 -9.601562 17.609375 -10.09375 C 18.023438 -10.59375 18.234375 -11.335938 18.234375 -12.328125 L 18.234375 -26.125 L 30.078125 -26.125 L 30.078125 0 L 18.734375 0 L 17.75 -2.953125 C 17.75 -2.953125 17.625 -2.765625 17.375 -2.390625 C 17.125 -2.015625 16.738281 -1.585938 16.21875 -1.109375 C 15.695312 -0.628906 15.03125 -0.203125 14.21875 0.171875 C 13.414062 0.546875 12.457031 0.734375 11.34375 0.734375 Z M 11.34375 0.734375 "/></g></g></g><g fill="#ffffff" fill-opacity="1"><g transform="translate(2854.62444, 2061.272123)"><g><path d="M 24.40625 -7.890625 C 24.40625 -6.347656 23.96875 -4.914062 23.09375 -3.59375 C 22.226562 -2.28125 20.9375 -1.226562 19.21875 -0.4375 C 17.507812 0.34375 15.375 0.734375 12.8125 0.734375 C 10.78125 0.734375 9 0.492188 7.46875 0.015625 C 5.9375 -0.453125 4.65625 -0.988281 3.625 -1.59375 C 2.59375 -2.207031 1.8125 -2.75 1.28125 -3.21875 C 0.757812 -3.695312 0.5 -3.9375 0.5 -3.9375 L 4.1875 -9.859375 C 4.1875 -9.859375 4.441406 -9.648438 4.953125 -9.234375 C 5.460938 -8.828125 6.1875 -8.414062 7.125 -8 C 8.0625 -7.59375 9.140625 -7.390625 10.359375 -7.390625 C 10.710938 -7.390625 11.003906 -7.492188 11.234375 -7.703125 C 11.460938 -7.921875 11.578125 -8.144531 11.578125 -8.375 C 11.578125 -8.675781 11.253906 -8.957031 10.609375 -9.21875 C 9.972656 -9.476562 9.175781 -9.804688 8.21875 -10.203125 C 7.269531 -10.597656 6.3125 -11.125 5.34375 -11.78125 C 4.375 -12.4375 3.566406 -13.28125 2.921875 -14.3125 C 2.285156 -15.351562 1.96875 -16.660156 1.96875 -18.234375 C 1.96875 -19.816406 2.398438 -21.253906 3.265625 -22.546875 C 4.140625 -23.847656 5.441406 -24.890625 7.171875 -25.671875 C 8.898438 -26.460938 11.03125 -26.859375 13.5625 -26.859375 C 15.238281 -26.859375 16.738281 -26.644531 18.0625 -26.21875 C 19.394531 -25.789062 20.53125 -25.304688 21.46875 -24.765625 C 22.40625 -24.222656 23.128906 -23.738281 23.640625 -23.3125 C 24.148438 -22.882812 24.40625 -22.671875 24.40625 -22.671875 L 20.703125 -16.765625 C 20.703125 -16.765625 20.492188 -16.925781 20.078125 -17.25 C 19.671875 -17.582031 19.125 -17.910156 18.4375 -18.234375 C 17.75 -18.566406 16.941406 -18.734375 16.015625 -18.734375 C 15.660156 -18.734375 15.363281 -18.632812 15.125 -18.4375 C 14.894531 -18.238281 14.78125 -18.007812 14.78125 -17.75 C 14.78125 -17.445312 15.101562 -17.164062 15.75 -16.90625 C 16.394531 -16.644531 17.203125 -16.316406 18.171875 -15.921875 C 19.140625 -15.523438 20.097656 -15 21.046875 -14.34375 C 22.003906 -13.6875 22.800781 -12.835938 23.4375 -11.796875 C 24.082031 -10.765625 24.40625 -9.460938 24.40625 -7.890625 Z M 24.40625 -7.890625 "/></g></g></g><g fill="#ffffff" fill-opacity="1"><g transform="translate(2880.010549, 2061.272123)"><g><path d="M 4.4375 -16.265625 L 0.984375 -16.265625 L 0.984375 -26.125 L 4.4375 -26.125 L 4.4375 -34.5 L 16.265625 -34.5 L 16.265625 -26.125 L 20.703125 -26.125 L 20.703125 -16.265625 L 16.265625 -16.265625 L 16.265625 -12.078125 C 16.265625 -11.085938 16.492188 -10.347656 16.953125 -9.859375 C 17.410156 -9.367188 18.003906 -9.125 18.734375 -9.125 C 19.222656 -9.125 19.671875 -9.160156 20.078125 -9.234375 C 20.492188 -9.316406 20.703125 -9.359375 20.703125 -9.359375 L 20.703125 0.5 C 20.703125 0.5 20.273438 0.578125 19.421875 0.734375 C 18.566406 0.898438 17.515625 0.984375 16.265625 0.984375 C 12.585938 0.984375 9.695312 -0.113281 7.59375 -2.3125 C 5.488281 -4.519531 4.4375 -7.773438 4.4375 -12.078125 Z M 4.4375 -16.265625 "/></g></g></g><g fill="#ffffff" fill-opacity="1"><g transform="translate(2903.17846, 2061.272123)"><g><path d="M 1.484375 -13.0625 C 1.484375 -15.625 2.125 -17.945312 3.40625 -20.03125 C 4.6875 -22.125 6.453125 -23.785156 8.703125 -25.015625 C 10.953125 -26.242188 13.554688 -26.859375 16.515625 -26.859375 C 19.472656 -26.859375 22.082031 -26.242188 24.34375 -25.015625 C 26.613281 -23.785156 28.378906 -22.125 29.640625 -20.03125 C 30.910156 -17.945312 31.546875 -15.625 31.546875 -13.0625 C 31.546875 -10.53125 30.910156 -8.210938 29.640625 -6.109375 C 28.378906 -4.003906 26.613281 -2.335938 24.34375 -1.109375 C 22.082031 0.117188 19.472656 0.734375 16.515625 0.734375 C 13.554688 0.734375 10.953125 0.117188 8.703125 -1.109375 C 6.453125 -2.335938 4.6875 -4.003906 3.40625 -6.109375 C 2.125 -8.210938 1.484375 -10.53125 1.484375 -13.0625 Z M 19.71875 -13.0625 C 19.71875 -14.175781 19.394531 -15.070312 18.75 -15.75 C 18.113281 -16.425781 17.367188 -16.765625 16.515625 -16.765625 C 15.660156 -16.765625 14.910156 -16.425781 14.265625 -15.75 C 13.628906 -15.070312 13.3125 -14.175781 13.3125 -13.0625 C 13.3125 -11.945312 13.628906 -11.050781 14.265625 -10.375 C 14.910156 -9.695312 15.660156 -9.359375 16.515625 -9.359375 C 17.367188 -9.359375 18.113281 -9.695312 18.75 -10.375 C 19.394531 -11.050781 19.71875 -11.945312 19.71875 -13.0625 Z M 19.71875 -13.0625 "/></g></g></g><g fill="#ffffff" fill-opacity="1"><g transform="translate(2936.205084, 2061.272123)"><g><path d="M 21.203125 -26.859375 C 22.835938 -26.859375 24.328125 -26.40625 25.671875 -25.5 C 27.023438 -24.601562 28.097656 -23.191406 28.890625 -21.265625 C 29.679688 -19.347656 30.078125 -16.859375 30.078125 -13.796875 L 30.078125 0 L 18.234375 0 L 18.234375 -13.796875 C 18.234375 -14.785156 18.023438 -15.523438 17.609375 -16.015625 C 17.203125 -16.515625 16.753906 -16.765625 16.265625 -16.765625 C 15.773438 -16.765625 15.320312 -16.515625 14.90625 -16.015625 C 14.5 -15.523438 14.296875 -14.785156 14.296875 -13.796875 L 14.296875 0 L 2.46875 0 L 2.46875 -26.125 L 13.796875 -26.125 L 14.78125 -23.171875 C 14.78125 -23.171875 14.90625 -23.359375 15.15625 -23.734375 C 15.40625 -24.109375 15.789062 -24.535156 16.3125 -25.015625 C 16.84375 -25.492188 17.507812 -25.921875 18.3125 -26.296875 C 19.113281 -26.671875 20.078125 -26.859375 21.203125 -26.859375 Z M 21.203125 -26.859375 "/></g></g></g></svg>