<svg xmlns="http://www.w3.org/2000/svg" xmlns:xlink="http://www.w3.org/1999/xlink" width="750" zoomAndPan="magnify" viewBox="0 0 562.5 562.499982" height="750" preserveAspectRatio="xMidYMid meet" version="1.0"><defs><clipPath id="4ef4c62d0b"><path d="M 125 278 L 331 278 L 331 483.320312 L 125 483.320312 Z M 125 278 " clip-rule="nonzero"/></clipPath><clipPath id="d912488b3b"><path d="M 262 247.550781 L 467.785156 247.550781 L 467.785156 452.566406 L 262 452.566406 Z M 262 247.550781 " clip-rule="nonzero"/></clipPath><clipPath id="9709f11b7f"><path d="M 195 56.199219 L 401 56.199219 L 401 258 L 195 258 Z M 195 56.199219 " clip-rule="nonzero"/></clipPath></defs><path fill="#ffffff" d="M 0 0 L 562 0 L 562 562 L 0 562 Z M 0 0 " fill-opacity="1" fill-rule="nonzero"/><path fill="#6d09af" d="M 0 0 L 562 0 L 562 562 L 0 562 Z M 0 0 " fill-opacity="1" fill-rule="nonzero"/><g clip-path="url(#4ef4c62d0b)"><path fill="#ed2481" d="M 329.871094 433.074219 C 329.222656 434.707031 328.015625 437.75 304.984375 445.296875 C 294.980469 448.574219 281.253906 452.398438 275.476562 452.402344 C 274.386719 452.402344 272.789062 452.289062 271.46875 451.359375 C 267.597656 448.621094 267.953125 442.355469 268.363281 435.105469 C 268.519531 432.371094 268.757812 428.242188 268.347656 427.085938 C 266 420.4375 261.367188 416.914062 254.183594 416.3125 C 253.136719 416.226562 252.125 416.183594 251.164062 416.183594 C 244.851562 416.183594 240.574219 418.058594 238.445312 421.761719 C 234.578125 428.480469 237.636719 439.828125 242.117188 447.527344 C 242.816406 448.734375 243.460938 449.796875 244.03125 450.738281 C 246.5625 454.921875 248.230469 457.683594 247.105469 460.851562 C 245.894531 464.257812 242.550781 465.453125 235.226562 468.078125 C 234.269531 468.421875 233.230469 468.792969 232.105469 469.203125 C 224.332031 472.027344 216.542969 474.828125 208.757812 477.632812 C 204.734375 479.078125 192.964844 483.320312 192.964844 483.320312 L 191.621094 479.605469 C 190.714844 477.089844 189.636719 473.144531 188.386719 468.570312 C 185.09375 456.546875 178.238281 431.523438 171.292969 429.027344 C 170.527344 428.753906 169.8125 428.617188 169.105469 428.617188 C 165.914062 428.617188 162.734375 431.617188 159.371094 434.796875 C 155.085938 438.84375 150.226562 443.429688 143.496094 443.429688 C 140.742188 443.429688 137.914062 442.628906 135.09375 441.046875 C 130.75 438.613281 127.523438 434.085938 126.246094 428.625 C 124.96875 423.167969 125.824219 417.710938 128.59375 413.660156 C 132.984375 407.242188 138.507812 406.503906 142.277344 406.503906 C 143.902344 406.503906 145.507812 406.65625 147.054688 406.800781 C 148.550781 406.941406 149.960938 407.074219 151.335938 407.074219 C 153 407.074219 154.339844 406.871094 155.539062 406.441406 C 158.257812 405.46875 159.921875 404.078125 160.78125 402.074219 C 163.480469 395.777344 158.199219 383.851562 153.960938 374.269531 C 151.410156 368.503906 149 363.0625 148.113281 358.65625 L 148.003906 358.121094 C 146.804688 352.183594 146.203125 349.203125 147.421875 346.46875 C 148.851562 343.257812 151.824219 342.3125 156.324219 340.886719 C 157.921875 340.375 159.730469 339.800781 161.929688 339.011719 C 164.582031 338.058594 168.015625 337.132812 171.644531 336.152344 C 179.691406 333.96875 190.714844 330.988281 194.804688 326.886719 C 199.644531 322.039062 198.078125 319.234375 191.976562 311.808594 C 186.585938 305.246094 179.203125 296.261719 188.527344 285.15625 C 192.113281 280.886719 198.109375 278.234375 204.175781 278.234375 C 208.789062 278.234375 213.019531 279.789062 216.082031 282.613281 C 222.226562 288.28125 221.46875 295.140625 220.851562 300.648438 C 220.496094 303.878906 220.15625 306.929688 221.15625 309.363281 C 222.015625 311.445312 223.785156 313.832031 229.902344 313.832031 C 240.363281 313.832031 255.882812 306.839844 267.210938 301.734375 C 271.40625 299.84375 268.699219 300.824219 271.40625 299.84375 L 272.660156 299.355469 C 277.445312 297.472656 282.832031 299.980469 284.476562 304.851562 C 285.320312 307.179688 285.171875 305.4375 286.949219 309.492188 C 296.953125 332.285156 304.429688 351.632812 294.546875 357.5625 C 291.84375 359.183594 288.777344 359.371094 286.703125 359.371094 C 285.140625 359.371094 283.535156 359.25 281.984375 359.132812 C 280.492188 359.015625 278.953125 358.898438 277.523438 358.898438 C 275.078125 358.898438 273.324219 359.25 272.015625 360.007812 C 265.671875 363.652344 262.710938 371.207031 264.648438 378.804688 C 266.28125 385.203125 271.332031 390.695312 276.929688 392.164062 C 278.09375 392.46875 279.191406 392.621094 280.199219 392.621094 C 283.855469 392.621094 286.421875 390.566406 289.671875 387.960938 C 292.242188 385.898438 295.152344 383.5625 298.945312 382.183594 C 302.320312 380.953125 304.457031 380.449219 306.335938 380.449219 C 312.335938 380.449219 313.945312 385.316406 315.8125 390.949219 C 316.25 392.261719 316.742188 393.753906 317.347656 395.433594 C 317.863281 396.863281 319.15625 399.6875 320.65625 402.960938 C 328.496094 420.082031 331.6875 428.496094 329.871094 433.074219 " fill-opacity="1" fill-rule="nonzero"/></g><g clip-path="url(#d912488b3b)"><path fill="#48c1e8" d="M 467.863281 384.984375 L 464.144531 386.324219 C 461.917969 387.128906 458.574219 388.050781 454.34375 389.226562 C 446.398438 391.429688 435.519531 394.441406 426.8125 398.222656 C 414.539062 403.550781 413.074219 407.589844 413.015625 409.078125 C 412.925781 411.230469 416.503906 416.371094 419.113281 420.121094 C 424.28125 427.542969 430.132812 435.953125 427.023438 443.199219 C 425.019531 447.871094 419.871094 450.78125 411.277344 452.105469 C 409.601562 452.367188 408.015625 452.496094 406.570312 452.496094 C 391.554688 452.496094 391.492188 439.214844 391.453125 430.421875 C 391.425781 424.726562 391.394531 418.84375 388.535156 416.628906 C 387.527344 415.847656 385.800781 415.433594 383.550781 415.433594 C 373.445312 415.433594 356.265625 423.316406 344.894531 428.527344 C 340.445312 430.574219 336.601562 432.332031 333.957031 433.289062 L 330.242188 434.628906 L 328.902344 430.914062 C 328.085938 428.640625 327.113281 425.160156 325.886719 420.753906 C 323.726562 412.988281 320.765625 402.355469 317.203125 393.714844 C 312.105469 381.347656 308.414062 379.394531 307.0625 379.125 C 306.878906 379.089844 306.679688 379.074219 306.472656 379.074219 C 303.472656 379.074219 298.785156 382.59375 294.648438 385.699219 C 289.136719 389.835938 283.4375 394.117188 277.554688 394.117188 C 271.488281 394.117188 266.855469 389.71875 263.789062 381.03125 C 261.367188 374.171875 261.441406 368.941406 264.019531 365.050781 C 268.03125 358.988281 276.402344 358.46875 284.5 357.96875 C 289.96875 357.625 296.167969 357.238281 297.980469 354.949219 C 302.886719 348.753906 296.546875 335.851562 290.953125 324.464844 C 286.246094 314.886719 281.800781 305.839844 282.457031 298.605469 L 282.6875 296.097656 L 285.050781 295.246094 C 287.515625 294.355469 290.957031 292.855469 294.945312 291.113281 C 306.726562 285.964844 321.390625 279.558594 331.445312 279.558594 C 336.285156 279.558594 339.84375 281.050781 342.015625 283.996094 C 344.734375 287.683594 344.480469 292.347656 344.234375 296.863281 C 343.964844 301.746094 343.714844 306.355469 346.9375 309.503906 C 350.066406 312.5625 354.007812 314.175781 358.339844 314.175781 C 360.558594 314.175781 362.832031 313.757812 365.097656 312.929688 C 371.886719 310.453125 376.125 305.316406 376.730469 298.835938 C 377.191406 293.867188 375.128906 291.40625 372.277344 287.996094 C 370.308594 285.644531 368.078125 282.972656 366.664062 279.261719 C 364.976562 274.816406 364.210938 271.472656 365.605469 268.542969 C 367.164062 265.261719 370.542969 264.148438 375.21875 262.605469 C 376.570312 262.160156 378.105469 261.652344 379.8125 261.035156 C 381.144531 260.550781 383.90625 259.292969 387.105469 257.835938 C 399.011719 252.417969 409.3125 247.933594 414.757812 247.933594 C 415.910156 247.933594 416.894531 248.121094 417.761719 248.5 C 421.753906 250.25 424.574219 256.957031 430.339844 278.394531 C 431.101562 281.238281 431.765625 283.695312 432.136719 284.796875 C 432.613281 286.199219 433.1875 287.621094 433.742188 288.996094 C 436.257812 295.242188 439.703125 303.792969 430.300781 308.796875 C 428.167969 309.929688 425.765625 310.460938 422.746094 310.460938 C 421.082031 310.460938 419.414062 310.304688 417.800781 310.148438 C 416.21875 310 414.722656 309.855469 413.265625 309.855469 C 410.34375 309.855469 408.335938 310.445312 406.554688 311.820312 C 401.234375 315.929688 399.089844 324.324219 401.5625 331.351562 C 404.027344 338.363281 410.71875 343.457031 417.464844 343.457031 L 417.707031 343.453125 C 421.558594 343.386719 424.691406 340.34375 428.015625 337.128906 C 431.402344 333.851562 434.902344 330.460938 439.640625 330.125 C 439.839844 330.109375 440.035156 330.105469 440.238281 330.105469 C 450.820312 330.105469 457.136719 349.101562 463.726562 372.046875 C 464.839844 375.917969 465.796875 379.265625 466.519531 381.269531 L 467.863281 384.984375 " fill-opacity="1" fill-rule="nonzero"/></g><path fill="#fefae1" d="M 297.144531 232.242188 C 292.726562 237.253906 285.273438 237.261719 278.695312 237.273438 C 274.484375 237.277344 270.128906 237.28125 267.578125 238.582031 C 261.804688 241.511719 262.992188 247.191406 267.835938 258.816406 C 268.613281 260.683594 269.351562 262.445312 269.957031 264.140625 C 270.445312 265.507812 271.605469 267.886719 272.832031 270.402344 C 277.640625 280.269531 280.929688 287.636719 279.441406 292.597656 C 277.414062 299.371094 269.894531 301.75 262.628906 304.050781 C 261.007812 304.558594 259.335938 305.085938 257.785156 305.652344 C 255.742188 306.390625 253.363281 307.460938 250.84375 308.59375 C 244.984375 311.234375 238.34375 314.222656 232.554688 314.496094 C 231.039062 314.566406 229.894531 314.601562 228.953125 314.601562 C 226.484375 314.601562 223.699219 314.441406 221.839844 312.496094 C 220 310.574219 220.105469 308.140625 220.210938 305.789062 C 220.277344 304.3125 220.355469 302.476562 220.113281 300.117188 C 218.871094 288.066406 212.421875 280.871094 202.859375 280.871094 C 196.667969 280.871094 190.753906 284.035156 187.792969 288.929688 C 184.949219 293.625 185.121094 299.308594 188.292969 305.363281 C 188.761719 306.257812 190.667969 308.117188 192.199219 309.609375 C 196.335938 313.648438 200.617188 317.824219 199.703125 322.5625 C 198.601562 328.28125 190.898438 330.851562 181.707031 333.390625 C 180.382812 333.753906 179.140625 334.097656 178.503906 334.328125 C 176.398438 335.09375 174.082031 336.113281 171.628906 337.191406 C 165.949219 339.691406 160.078125 342.273438 154.449219 342.867188 C 151.5 343.179688 150.675781 343.839844 150.320312 344.121094 C 149.902344 344.453125 148.917969 345.242188 147.429688 345.242188 C 147.429688 345.242188 147.425781 345.242188 147.425781 345.242188 C 144.714844 345.242188 143.683594 342.996094 143.1875 341.917969 C 142.742188 340.945312 141.917969 339.136719 140.003906 335.976562 C 137.953125 332.578125 136.742188 328.503906 135.574219 324.5625 C 135.054688 322.828125 134.570312 321.1875 134.042969 319.734375 C 133.714844 318.808594 132.925781 317.078125 132.015625 315.070312 C 126.183594 302.226562 123.824219 295.378906 126.1875 291.179688 C 129.078125 286.046875 135.019531 286.046875 136.972656 286.046875 C 138.503906 286.046875 140.078125 286.171875 141.597656 286.285156 C 143.070312 286.398438 144.460938 286.503906 145.757812 286.503906 C 146.964844 286.503906 147.917969 286.40625 148.667969 286.214844 C 154.980469 284.574219 159.683594 279.957031 161.238281 273.863281 C 162.808594 267.726562 160.828125 261.316406 155.933594 256.71875 C 152.695312 253.667969 149.289062 252.1875 145.53125 252.1875 C 142.855469 252.1875 139.941406 252.957031 136.875 254.46875 C 135.957031 254.925781 133.832031 257.113281 132.28125 258.710938 C 128.421875 262.6875 124.78125 266.441406 120.75 266.441406 L 120.5 266.4375 C 112.621094 266.128906 106.945312 251.519531 97.933594 220.945312 C 96.871094 217.347656 95.953125 214.242188 95.429688 212.78125 L 94.089844 209.066406 L 97.804688 207.726562 C 101.902344 206.25 107.117188 204.863281 112.636719 203.394531 C 124.503906 200.242188 139.273438 196.316406 145.425781 190.433594 C 148.257812 187.722656 149.6875 185.589844 149.558594 184.257812 C 149.429688 182.945312 147.859375 181.082031 146.042969 178.933594 C 144.277344 176.839844 142.078125 174.234375 140.171875 170.910156 C 136.359375 164.265625 136.375 156.03125 140.203125 149.414062 C 143.449219 143.820312 148.746094 140.609375 154.742188 140.609375 C 158.039062 140.609375 161.394531 141.585938 164.707031 143.515625 C 173.574219 148.679688 173.160156 157.648438 172.828125 164.851562 C 172.5 172.042969 172.710938 175.398438 176.152344 177.300781 C 176.988281 177.761719 178.179688 177.996094 179.695312 177.996094 C 186.878906 177.996094 197.960938 172.9375 206.058594 169.246094 C 209.234375 167.796875 211.976562 166.542969 214.054688 165.789062 C 215.9375 165.109375 217.472656 164.464844 218.828125 163.898438 C 221.566406 162.746094 223.546875 161.914062 225.777344 161.914062 C 229.855469 161.914062 232.585938 164.855469 235.027344 167.867188 C 239.089844 172.863281 241.308594 181.148438 243.265625 188.464844 C 244.105469 191.609375 244.898438 194.582031 245.734375 196.878906 C 246.222656 198.234375 246.699219 199.636719 247.167969 201.042969 C 250.046875 209.613281 252.285156 215.230469 256.941406 215.230469 C 258.128906 215.230469 259.527344 214.917969 261.101562 214.308594 C 263.011719 213.566406 264.746094 211.59375 266.582031 209.511719 C 269.253906 206.480469 272.285156 203.039062 277.070312 201.875 C 278.542969 201.519531 280.046875 201.335938 281.542969 201.335938 C 291.019531 201.335938 299.058594 208.550781 300.246094 218.117188 C 301.023438 224.382812 300.007812 229 297.144531 232.242188 " fill-opacity="1" fill-rule="nonzero"/><g clip-path="url(#9709f11b7f)"><path fill="#415ce6" d="M 400.707031 150.160156 C 400.890625 154.542969 396.824219 157.582031 394.429688 159.070312 C 391.5625 164.925781 386.40625 169.996094 381.40625 174.902344 C 378.269531 177.984375 375.304688 180.902344 373.171875 183.753906 C 366.78125 192.304688 366.828125 194.941406 366.996094 195.542969 C 367.296875 196.625 370.527344 197.953125 373.378906 199.128906 C 377.058594 200.644531 381.636719 202.527344 386.109375 205.84375 C 392.832031 210.835938 395.390625 218.847656 392.777344 226.746094 C 390.078125 234.894531 382.742188 240.585938 374.933594 240.585938 C 374.933594 240.585938 374.929688 240.585938 374.929688 240.585938 C 371.582031 240.585938 368.316406 239.589844 365.234375 237.621094 C 359.554688 233.996094 356.785156 228.441406 354.554688 223.976562 C 352.328125 219.503906 351.160156 217.542969 349.402344 217.542969 C 348.296875 217.542969 346.164062 218.070312 342.285156 220.597656 C 336.867188 224.125 331.441406 231.558594 326.65625 238.121094 C 324.308594 241.335938 322.085938 244.375 319.902344 246.960938 C 314.457031 253.386719 310.886719 257.328125 306.265625 257.328125 C 302.460938 257.328125 299.664062 254.847656 295.027344 250.742188 C 293.710938 249.578125 292.21875 248.253906 290.488281 246.796875 C 289.332031 245.820312 287.257812 244.371094 284.855469 242.6875 C 275.203125 235.925781 267.683594 230.316406 266.027344 224.777344 C 263.207031 215.332031 269.367188 212.910156 273.050781 211.464844 C 274.8125 210.769531 276.644531 210.054688 278.277344 208.742188 C 284.621094 203.671875 288.046875 196.148438 287.011719 189.582031 C 286.128906 184.019531 282.214844 179.773438 275.683594 177.308594 C 273.117188 176.335938 270.738281 175.847656 268.617188 175.847656 C 258.199219 175.847656 253.539062 188.011719 248.933594 202.710938 L 246.839844 209.375 L 195.5 166.894531 L 198.066406 163.851562 C 199.15625 162.550781 201.144531 159.855469 203.453125 156.738281 C 219.632812 134.824219 229.820312 122.949219 237.292969 122.949219 C 238.125 122.949219 238.925781 123.089844 239.671875 123.363281 C 244.097656 124.988281 246.269531 129.957031 248.371094 134.761719 C 249.890625 138.230469 251.609375 142.164062 253.707031 143.476562 C 256.796875 145.402344 259.917969 146.378906 262.980469 146.378906 C 265.417969 146.378906 267.902344 145.757812 270.367188 144.539062 C 276.847656 141.320312 280.34375 136.59375 280.46875 130.871094 C 280.625 123.863281 275.644531 116.339844 268.078125 112.152344 C 265.351562 110.640625 263.066406 109.675781 261.238281 108.894531 C 258.011719 107.53125 255.226562 106.351562 254.382812 103.292969 C 253.386719 99.695312 255.738281 96.480469 260.878906 89.433594 C 261.710938 88.296875 262.648438 86.972656 263.664062 85.539062 C 268.785156 78.289062 275.691406 68.511719 282.167969 63.976562 C 283.40625 61.183594 286.144531 56.199219 291.179688 56.199219 C 296.015625 56.199219 299.386719 61.128906 300.816406 63.445312 C 305.273438 67.203125 309.730469 70.957031 314.191406 74.710938 C 315.621094 75.914062 317.300781 77.566406 319.246094 79.480469 C 323.835938 83.996094 331.519531 91.554688 335.707031 91.816406 C 335.949219 91.835938 336.1875 91.839844 336.417969 91.839844 C 341.042969 91.839844 342.523438 88.738281 345.03125 81.113281 C 347.449219 73.773438 350.757812 63.714844 363.085938 63.714844 L 363.484375 63.71875 C 368.929688 63.816406 374.496094 66.695312 378.378906 71.417969 C 382.011719 75.847656 383.582031 81.238281 382.6875 86.21875 C 381.171875 94.625 375.074219 97.484375 370.171875 99.78125 C 367.929688 100.835938 365.8125 101.824219 364.164062 103.238281 C 361.28125 105.71875 359.910156 107.992188 359.984375 110.195312 C 360.164062 115.480469 368.394531 121.632812 375.007812 126.574219 C 377.382812 128.351562 379.628906 130.027344 381.613281 131.707031 C 385.800781 135.214844 389.996094 138.746094 394.179688 142.289062 C 398.382812 144.382812 400.578125 147.027344 400.707031 150.160156 " fill-opacity="1" fill-rule="nonzero"/></g><path fill="#6d09af" d="M 245.269531 211.273438 C 245.730469 211.65625 246.285156 211.84375 246.839844 211.84375 C 247.546875 211.84375 248.257812 211.539062 248.742188 210.949219 C 249.609375 209.898438 249.464844 208.339844 248.414062 207.472656 L 202.636719 169.597656 C 201.585938 168.730469 200.03125 168.875 199.164062 169.925781 C 198.292969 170.976562 198.441406 172.53125 199.492188 173.402344 Z M 331.082031 436.949219 C 330.804688 437.050781 330.519531 437.097656 330.242188 437.097656 C 329.230469 437.097656 328.285156 436.472656 327.921875 435.464844 L 326.578125 431.753906 C 325.726562 429.378906 324.746094 425.863281 323.507812 421.414062 C 321.363281 413.710938 318.425781 403.160156 314.921875 394.652344 C 309.863281 382.390625 306.617188 381.554688 306.585938 381.550781 C 306.546875 381.542969 306.511719 381.542969 306.472656 381.542969 C 304.296875 381.542969 299.382812 385.234375 296.132812 387.671875 C 290.292969 392.058594 284.257812 396.589844 277.554688 396.589844 C 272.585938 396.589844 265.765625 394.03125 261.464844 381.851562 C 258.765625 374.210938 258.925781 368.273438 261.960938 363.6875 C 266.648438 356.601562 276.050781 356.019531 284.34375 355.5 C 288.042969 355.269531 294.914062 354.84375 296.042969 353.417969 C 299.984375 348.441406 293.75 335.753906 288.738281 325.554688 C 285.15625 318.253906 281.761719 311.34375 280.46875 305.039062 L 278.8125 304.890625 C 272.261719 304.289062 263.523438 308.59375 254.261719 313.144531 C 242.21875 319.058594 228.574219 325.761719 221.15625 319.890625 C 218.003906 317.394531 217.621094 311.199219 217.214844 304.636719 C 216.746094 297.132812 216.261719 289.382812 211.226562 286.050781 C 208.023438 283.929688 203.507812 283.941406 197.429688 286.089844 C 189.835938 288.773438 185.988281 292.621094 185.988281 297.527344 C 185.988281 302.589844 190.015625 307.949219 193.910156 313.140625 C 197.414062 317.804688 201.03125 322.625 201.03125 326.445312 C 201.03125 326.816406 201 327.179688 200.933594 327.519531 C 200.175781 331.355469 194.769531 335.375 184.867188 339.457031 C 176.085938 343.078125 165.371094 346.0625 157.546875 348.238281 C 153.195312 349.449219 149.761719 350.402344 147.558594 351.195312 L 143.84375 352.539062 C 143.570312 352.636719 143.289062 352.683594 143.007812 352.683594 C 142 352.683594 141.046875 352.0625 140.6875 351.054688 C 140.222656 349.773438 140.886719 348.355469 142.171875 347.898438 L 145.886719 346.554688 C 148.257812 345.699219 151.773438 344.722656 156.226562 343.484375 C 163.925781 341.339844 174.476562 338.402344 182.984375 334.894531 C 195.25 329.835938 196.082031 326.589844 196.089844 326.558594 C 196.097656 326.519531 196.097656 326.484375 196.097656 326.445312 C 196.097656 324.269531 192.410156 319.359375 189.96875 316.109375 C 185.582031 310.265625 181.050781 304.234375 181.050781 297.527344 C 181.050781 292.5625 183.605469 285.738281 195.785156 281.4375 C 203.425781 278.738281 209.367188 278.898438 213.949219 281.933594 C 221.035156 286.625 221.621094 296.023438 222.136719 304.320312 C 222.363281 308.019531 222.792969 314.890625 224.21875 316.019531 C 229.195312 319.960938 241.886719 313.722656 252.082031 308.714844 C 261.984375 303.851562 271.332031 299.25 279.257812 299.976562 L 281.761719 300.203125 C 282.480469 300.265625 283.089844 300.636719 283.492188 301.167969 C 284.324219 301.453125 284.976562 302.160156 285.128906 303.089844 C 286.09375 308.976562 289.53125 315.96875 293.167969 323.371094 C 299.082031 335.417969 305.785156 349.0625 299.914062 356.480469 C 297.421875 359.636719 291.226562 360.019531 284.664062 360.429688 C 277.15625 360.894531 269.410156 361.375 266.074219 366.414062 C 263.957031 369.617188 263.96875 374.128906 266.117188 380.207031 C 268.796875 387.800781 272.644531 391.652344 277.554688 391.652344 C 282.613281 391.652344 287.976562 387.625 293.164062 383.726562 C 297.832031 380.222656 302.648438 376.605469 306.472656 376.605469 C 306.839844 376.605469 307.203125 376.640625 307.546875 376.707031 C 311.382812 377.464844 315.402344 382.871094 319.484375 392.773438 C 323.101562 401.550781 326.085938 412.269531 328.265625 420.089844 C 329.476562 424.441406 330.429688 427.878906 331.222656 430.078125 L 332.5625 433.792969 C 333.027344 435.074219 332.363281 436.488281 331.082031 436.949219 " fill-opacity="1" fill-rule="nonzero"/></svg>